/* XPM */
static const char *_[] = {
/* columns rows colors chars-per-pixel */
"30 30 63 1 ",
"  c #454544",
". c #464645",
"X c #464646",
"o c #474746",
"O c #474747",
"+ c #484847",
"@ c #494948",
"# c #494949",
"$ c #4C4C4C",
"% c #4E4E4D",
"& c #4E4E4E",
"* c #4F4F4E",
"= c #515150",
"- c #515151",
"; c #525251",
": c #535352",
"> c #565655",
", c #5B5B5A",
"< c #5C5C5B",
"1 c #5C5C5C",
"2 c #5D5D5C",
"3 c #5E5E5D",
"4 c #5E5E5E",
"5 c #5F5F5E",
"6 c #5F5F5F",
"7 c #60605F",
"8 c #606060",
"9 c #616160",
"0 c #616161",
"q c #626261",
"w c #626262",
"e c #636362",
"r c #636363",
"t c #646463",
"y c #646464",
"u c #656564",
"i c #656565",
"p c #666665",
"a c #666666",
"s c #676767",
"d c #686867",
"f c #686868",
"g c #696968",
"h c #696969",
"j c #6A6A6A",
"k c #6B6B6A",
"l c #6B6B6B",
"z c #6C6C6C",
"x c #6D6D6C",
"c c #6C6C6D",
"v c #6D6D6D",
"b c #6E6E6D",
"n c #6E6E6E",
"m c #6F6F6E",
"M c #717171",
"N c #727273",
"B c #737373",
"V c #747474",
"C c #777776",
"Z c #777777",
"A c #7D7D7D",
"S c #7E7E7D",
"D c #7E7E7E",
/* pixels */
"nkwkk7knnk7knnnnk7knnnk7knnnnn",
"nnknk3knnk3knnnnk3dnnnk3knnnnn",
"ppppw3wppw<wppppw,<wppw3wppppp",
"ww3wwww3wwwww3wtwwww3wwwwww3ww",
"SCpCSSCpCSSSCpCSSSSCpCSSSSCpCS",
"CnwnBBnwnBBBnwnBBBBnwnBBBBnwnB",
"nk3knnk3knnnk3knnnnk33knnnk7kn",
"pw3wppw3wpppw3wppppw<wppppw3wp",
"twwww3wwww3wwwww3wtwwww3wtwwwt",
"SSSSCpCSSCpCSSSCpCSSSSCpCSSSSS",
"BBBBnwnBBnwnBBBnwnBBBBnwnBBBBB",
"nnnnk3pwkk3knnnk3knnnnk3knnnnn",
"ppppw3wwpw3wpppw3wppppw3wppppp",
"tw3wwwww3wwww3wwwwtw3wwwwtw3wt",
"SCpCSSSCpCSSCpCSSSSCpCSSSSCpCS",
"BnwnBBBnwnBBnwnBBBBnwnBBBBnwnB",
"nk3knnnp3knnk7knnnnk3knnnnk3kn",
"pw3wppt3,wppw<wppppw3wppppw3wp",
"wwwww3wwww3wwwwww3wwwww3wwwwww",
"SSSSCpCSSCpCSSSSCpCSSSCpCSSSSS",
"BBBBnwnBBnwnBBBBnwnBBBnwnBBBBB",
"nnnnk7pwkk7knnnnk3knnnk3knnnnn",
"ppppw3wwpw<wppppw3wpppw3wppppp",
"tw3wwwww3wwwww3wwww3wtwwwww3ww",
"SCpCSSSCpCSSSCpCSSCpCSSSSSCpCS",
"Cn3nCBCn3nBBCn3nCBn3nCBBBBn3nC",
"kw=wkkkw=wkpkw=wkkw=wkkkpkw=wk",
"&$.$&&&@.&&&&&.&&&&.&&&&&&&.&&",
".............+.+..............",
">>>>=@=>>=@=>>>>=@=>>>>=@=>>>>"
};
