/* XPM */
static const char *c[] = {
/* columns rows colors chars-per-pixel */
"30 27 181 2 ",
"   c #54433A",
".  c #55433A",
"X  c #55443B",
"o  c #56443B",
"O  c #57463C",
"+  c #57463D",
"@  c #58463D",
"#  c #58473D",
"$  c #59473D",
"%  c #59473E",
"&  c #5A483D",
"*  c #5B483E",
"=  c #5A493F",
"-  c #5B493F",
";  c #564942",
":  c #574C45",
">  c #5C4A40",
",  c #5D4A41",
"<  c #5E4B40",
"1  c #5E4B41",
"2  c #5E4C41",
"3  c #5F4C42",
"4  c #5F4D43",
"5  c #5B5450",
"6  c #5D5957",
"7  c #5B5558",
"8  c #5B5B5E",
"9  c #604D42",
"0  c #614D42",
"q  c #604D43",
"w  c #614D43",
"e  c #614E43",
"r  c #624E43",
"t  c #644F43",
"y  c #604F45",
"u  c #624E44",
"i  c #634F44",
"p  c #644F44",
"a  c #635045",
"s  c #635146",
"d  c #625147",
"f  c #645044",
"g  c #645045",
"h  c #645046",
"j  c #645146",
"k  c #645147",
"l  c #60534B",
"z  c #645248",
"x  c #645348",
"c  c #645349",
"v  c #64544A",
"b  c #65544A",
"n  c #60544D",
"m  c #64564D",
"M  c #65564D",
"N  c #67574E",
"B  c #645850",
"V  c #655950",
"C  c #665A51",
"Z  c #645952",
"A  c #645A53",
"S  c #625B56",
"D  c #655B54",
"F  c #675D56",
"G  c #685950",
"H  c #685E56",
"J  c #655F59",
"K  c #615E5D",
"L  c #64605C",
"P  c #6D655E",
"I  c #505F6A",
"U  c #576768",
"Y  c #5D656B",
"T  c #47617B",
"R  c #576A7A",
"E  c #566C7B",
"W  c #636261",
"Q  c #606162",
"!  c #6A6761",
"~  c #626A6B",
"^  c #756C64",
"/  c #746E66",
"(  c #607275",
")  c #6E7878",
"_  c #717571",
"`  c #797E79",
"'  c #316594",
"]  c #3A6894",
"[  c #326B9E",
"{  c #256EA4",
"}  c #2F79AF",
"|  c #2C7AB1",
" . c #347DB4",
".. c #406382",
"X. c #446585",
"o. c #476984",
"O. c #486B85",
"+. c #4A6A84",
"@. c #406B8D",
"#. c #48698D",
"$. c #4A6A8D",
"%. c #516D83",
"&. c #526B89",
"*. c #587184",
"=. c #5B7689",
"-. c #527E8B",
";. c #5D788C",
":. c #406993",
">. c #4E749C",
",. c #457A9F",
"<. c #4C7D9D",
"1. c #607885",
"2. c #6B7F89",
"3. c #4E79A3",
"4. c #547FA3",
"5. c #2581BD",
"6. c #3780B1",
"7. c #3185BF",
"8. c #53809D",
"9. c #6C8287",
"0. c #65818D",
"q. c #7E8580",
"w. c #60819C",
"e. c #7C919E",
"r. c #4C8EA3",
"t. c #4B8BB3",
"y. c #498DB6",
"u. c #4988B8",
"i. c #4D9BB2",
"p. c #5C9DBF",
"a. c #6F8BAB",
"s. c #7B9BA0",
"d. c #7898A6",
"f. c #78A1AC",
"g. c #3388C2",
"h. c #3589C2",
"j. c #3B8EC5",
"k. c #2891CD",
"l. c #3B93CB",
"z. c #2A9DD7",
"x. c #329CD6",
"c. c #3AA1D7",
"v. c #35A7DE",
"b. c #4895C4",
"n. c #5298C4",
"m. c #5B9EC2",
"M. c #50AECC",
"N. c #50B9DB",
"B. c #61A1C3",
"V. c #61A3C5",
"C. c #69A2C0",
"Z. c #6BA8C8",
"A. c #7DA6C4",
"S. c #7FAEC1",
"D. c #77BDCE",
"F. c #6BC9E1",
"G. c #879B9A",
"H. c #8AA3A2",
"J. c #88AAAD",
"K. c #91ACAD",
"L. c #A9B8B7",
"P. c #8EBEC5",
"I. c #81B0CA",
"U. c #96BCC0",
"Y. c #94C3C7",
"T. c #82C4D7",
"R. c #82C6D8",
"E. c #87C8D9",
"W. c #97C6D4",
"Q. c #9DC7DD",
"!. c #A0CDCF",
"~. c #A0D9DC",
"^. c #A0DBDD",
"/. c #A1DBDD",
"(. c #AADBDC",
"). c #87CEE0",
"_. c #85D8ED",
"`. c #A7D1E3",
"'. c #A8D8E3",
"]. c #ADDEE0",
"[. c #ACE2EB",
/* pixels */
"    $ e i g g g g i > $ $ > i g g g g g g g g g g g g g g i ",
"    X 2 i g g g g i i e e e i g g g g g g g g g g g g g i e ",
"    X > i g g g g g g g g g g g g g g g g g g g g g g g e > ",
"- $ > e i g g g g g g g g g g g g g g g g g g g g g g g i e ",
"i e i i i g g g g g g g g i i i i g g g g g g g g g g g i i ",
"g g g a g g g g g g g i i g G b i g g g g g g g g g g g g g ",
"g g g g g g g g g g g i g / s.( a p g g g g g g g g g g g g ",
"g g g g g g g g g g g g / L.).i.U a p g i i e e i e i i i g ",
"g g g g g g g g a g p N G.[._.N.r.6 i i p e $ + $ - e p i g ",
"i i i g g g g g g g i x ) D.F.M.-.n p g p e - + $ 2 i i g g ",
"- 2 i g g g g g g g g i F d.C.4.8 p i g g i i i i i i g g g ",
"> e g g g g g g g g g i H e.a.&.7 p g g i g i g i i g g g g ",
"i i g g g g g g g g g i C 2.w.;.K p g g g g i g g g g g g g ",
"g g g g g g g g g g g i P J.P.U.` a i e i i i g g g g g g g ",
"g g g g g g g g i i i x q.!.~.(.H.C - $ - e i g g g g g g g ",
"g g g g g g i i e > - D K.].~.~.Y._ 2 > 2 i i g g g g g g g ",
"g g g g g i i 2 $   : 9.W.'.E.R.T.f.! g i i i g g g g g g g ",
"g g g g g i i -     ~ S.`.I.t.y.m.V.0.N i g g g g g g g g g ",
"g g g g g i i e > i 1.A.Q.Z.p.B.n. .<.J p g g g g g g g g g ",
"g g g g g g i g p b =.3.u.g.h.j.l.7.,.L t g g g g g g g g g ",
"g g g g g g g g i b *.:.[ 5.k.x.c.| @.S e g g g g g g g g g ",
"g g g g g g g g i b E #.>.} z.v.b.' ..5 - e i g g g g g g g ",
"g g g g g g g g g g W T $.] { 6.4.X.I ; X 2 i g g g g g g g ",
"g g g g g g g g g p x W R O.o.O.%.Y l > > i i g g g g g g g ",
"g g g g g g g g g g g g N C C C C x p g g i g g g g g g g g ",
"g g g g g g g g g g g g g p p p p g g g g i g g i i i g g g ",
"g g g g g g g g g g g g g g g g g g g g i g g g i g g g g g "
};
