/* XPM */
static const char *_[] = {
/* columns rows colors chars-per-pixel */
"50 50 36 1 ",
"  c #52423A",
". c #514139",
"X c #57453D",
"o c #634F44",
"O c #645045",
"+ c #5B493F",
"@ c #53433A",
"# c #58473E",
"$ c #624E44",
"% c #614D43",
"& c #5E4B41",
"* c #53423A",
"= c #5D4A40",
"- c #624E43",
"; c #54433B",
": c #5F4C42",
"> c #54443B",
", c #614E43",
"< c #56453D",
"1 c #56453C",
"2 c #604D42",
"3 c #604C42",
"4 c #53433B",
"5 c #624F44",
"6 c #59483E",
"7 c #5E4C41",
"8 c #5A483F",
"9 c #5A483E",
"0 c #5F4C41",
"q c #57463D",
"w c #504139",
"e c #504038",
"r c #504039",
"t c #5C4940",
"y c #5B4940",
"u c white",
/* pixels */
"  .XoOOOOOOOOOOOO+.  .+OOOOOOOOOOOOOOOOOOOOOOOOOOO",
"  .@#$OOOOOOOOOOO%&&&&%OOOOOOOOOOOOOOOOOOOOOOOOOOO",
"   .@$OoOOOOOOOOoOOOOOOoOOOOOOOOOOOOOOOOOOOOOOOoOO",
".. .*=$OOOOOOOOOOOOOOOOOOOOOOOOOOOOOOOOOOOOOOOOO-&",
"; . ;;:OOOOOOOOOOOOOOOOOOOOOOOOOOOOOOOOOOOOOOOOO:>",
",<.1,,oOOOOOOOOOOOOOOOOOOOOOOOOOOOOOOOOOOOOOOOOOo,",
"O2&2OOOoOOOOOOOOOOOOOOOOOOOOOOOOOOOOOOOOOOOOOOOoOO",
"OOOOOOOOOOOOOOOOOOOOOOOOOOOOOOOOOOOOOOOOOOOOOOOOOO",
"OOOOOOOOOOOOOOOOOOOOOOOOOOOOOOOOOOOOOOOOOOOOOOOOOO",
"OOOOOOOOOOOOOOOOOOOOOOOOOOOOOOOOOOOOOOOOOOOOOOOOOO",
"OOOOOOOOOOOOOOOOOOOOOOOOOOOOOOOOOOOOOOOOOOOOOOOOOO",
"OOOOOOOOOOOOOOOOOOOOOOOOOOOOOOOOOOOOOOOOOOOOOOOOOO",
"OOOOOOOOOOOOOOOOOOOOOOOOOOOOOOOOOOOOOOOOOOOOOOOOOO",
"OOOOOOOOOOOOOOOOOOOOOOOOOOOOOOOOOOOo3&&&&&&3oOOOOO",
"OOOOOOOOOOOOOOOOOOOOOOOOOOOOOOOOOOOo#    44#oOOOOO",
"OOOOOOOOOOOOOOOOOOOOOOOOOOOOOOOOOOOo56.  =-$oOOOOO",
"OOOoOOOOOOOOOOOOOOOOOOOOOOOOOOOOOOOOO,&&75OOOOOOOO",
"89:OOOOOOOOOOOOOOOOOOOOOOOOOOOOOOOOOoOOOOOoOOOOOOO",
"11=OOOOOOOOOOOOOOOOOOOOOOOOOOOOOOOOOOOOOOOOOOOOOOO",
"oooOOOOOOOOOOOOOOOOOOOOOOOOOOOOOOOOOOOOOOOOOOOOOOO",
"OOOOOOOOOOOOOOOOOOOOOOOOOOOOOOOOOOOOOOOOOOOOOOOOOO",
"OOOOOOOOOOOOOOOOOOOOOOOOOOOOOOOOOOOOOOOOOOOOOOOOOO",
"OOOOOOOOOOOOOOOOOOOOOOOOOOOOoOOOOOOOoOOOOOOOOOOOOO",
"OOOOOOOOOOOOOOOOOOOOOOOOOOOOOo0&&&0oOOOOOOOOOOOOOO",
"OOOOOOOOOOOOOOOOOOOOOOOOOOOOO-1;;;1-OOOOOOOOOOOOOO",
"OOOOOOOOOOOOOOoooooooooooOOOOo-,,,-oOOOOOOOOOOOOOO",
"OOOOOOOOOOOoOO5#<qqqqq18oOOOoOOOOOOOoOOOOOOOOOOOOO",
"OOOOOOOOOOOO:86 ...wwwe1oOOOOOOOOOOOOOOOOOOOOOOOOO",
"OOOOOOOOOOOO8r....*Xqq18oOOOOOOOOOOOOOOOOOOOOOOOOO",
"OOOOOOOOOOOOt@;;;@#ooooooOOOOOOOOOOOOOOOOOOOOOOOOO",
"OOOOOOOOOOOO5,,,,,$OOOOOOOOOOOOOOOOOOOOOOOOOOOOOOO",
"OOOOOOOOOOOoOOOOOOOOOOOOOOOOOOOOOOOOOOOOOOOOOOOOOO",
"OOOOOOOOOOOOOOOOOOOOOOOOOOOOOOOOOOOOOOOOOOOOOOOOOO",
"OOOOOOOOOOOOOOOOOOOOOOOOOOoOOOOOOOOOOOOOOOOOOOOOOO",
"OOOOOOOOOOOOOOOOOOOOOOOOOOO5,,,,,$OOOOOOOOOOOOOOOO",
"OOOOOOOOOOOOOOOOOOOOOOOoooOy@;;;@#oOOOOOOOOOOOOOOO",
"OOOOOOOOOOOOOOOOOOOOOOO211q;.....*#$OOOOOOOOOOOOOO",
"OOOOOOOOOOOOOOOOOOOOOOO%88@w.....w*,OOOOOOOOOOOOOO",
"OOOOOOOOOOOOOOOOOOOOOOoOOO+1qqqqq<#$OOOOOOOOOOOOOO",
"OOOOOOOOOOOOOOOOOOOOOOOOOoooooooooooOOOOOOOOOOOOOO",
"OOOOOOOOOOOOOOOOOOOOOOOOOOOOOOOOOOOOOOOOOOOOOOOOOO",
"OOOOOOOOOOOOOOOOOOOOOOOOOOOOOOOOOOOOOOOOOOOOOOOOOO",
"OOOOOOOOOOOOOOOOOOOOOOOOOOOOOOOOOOOOOOOOOOOOOOOOOO",
"OOOOOOOOOOOOOOOOOOOOOOOOOOOOOOOOOOOOOOOOOOOOOOOOOO",
"OOOOOOOOOOOOOOOOOOOOOOOOOOOOOOOOOOOOOOOOOOOOOOOOOO",
"OOOOOOOOOOOOOOOOOOOOOOOOOOOOOOOOOOOOOOOOOOOOOOOOOO",
"OOOOOOOOOOOOOOOOOOOOOOOOOOOOOOOOOOOOOOOOOOOOOOOOOO",
"OOOOOOOOOOOOOOOOOOOOOOOOOOOOOOOOOOOOOOOOOOOOOOOOOO",
"OOOOOOOOOOOOOOOOOOOOOOOOOOOOOOOOOOOOOOOOOOOOOOOOOO",
"OOOOOOOOOOOOOOOOOOOOOOOOOOOOOOOOOOOOOOOOOOOOOOOOOO"
};
