/* XPM */
static const char *_[] = {
/* columns rows colors chars-per-pixel */
"30 30 31 1 ",
"  c #514139",
". c #52423A",
"X c #53433A",
"o c #53433B",
"O c #54433B",
"+ c #54443B",
"@ c #55443C",
"# c #56453C",
"$ c #57453D",
"% c #57463D",
"& c #58463D",
"* c #58473E",
"= c #59473E",
"- c #5A483E",
"; c #5A483F",
": c #5B493F",
"> c #5C4940",
", c #5C4A40",
"< c #5D4A40",
"1 c #5E4B41",
"2 c #5F4C42",
"3 c #604C42",
"4 c #604D43",
"5 c #614D43",
"6 c #614E43",
"7 c #624E43",
"8 c #624E44",
"9 c #624F44",
"0 c #634F44",
"q c #634F45",
"w c #645045",
/* pixels */
"..:qwwwwww>%%>wwwwwwwwwwwwwwww",
"..+5wwwwwwqqqqwwwwwwwwwwwwwwwq",
"..O>qwwwwwwwwwwwwwwwwwwwwwwwq>",
">&>qwwwwwwwwwwwwwwwwwwwwwwwww5",
"wqwwwwwwwwwwwwwwwwwwwwwwwwwwww",
"wwwwwwwwwwwwwwwwwwwwwwwwwwwwww",
"wwwwwwwwwwwwwwwwwwwwwwwwwwwwww",
"wwwwwwwwwwwwwwwwwwwwwqqqqqwwww",
"wwwwwwwwwwwwwwwwwwwww5&%%:5www",
"wwwwwwwwwwwwwwwwwwwwwq>%:5qwww",
":5wwwwwwwwwwwwwwwwwwwwqqqwwwww",
">5wwwwwwwwwwwwwwwwwwwwwwwwwwww",
"wwwwwwwwwwwwwwwwwwwwwwwwwwwwww",
"wwwwwwwwwwwwwwwwwwqqqwwwwwwwww",
"wwwwwwwwwwwwwwwwwq:&:qwwwwwwww",
"wwwwwwwww2>>>>5wwq555qwwwwwwww",
"wwwwwww2&....O2wwwwwwwwwwwwwww",
"wwwwwww>OO+:>>5wwwwwwwwwwwwwww",
"wwwwwwwq555qwwwwwwwwwwwwwwwwww",
"wwwwwwwwwwwwwwwwwwwwwwwwwwwwww",
"wwwwwwwwwwwwwwwwq555qwwwwwwwww",
"wwwwwwwwwwwwww2>&OO+>qwwwwwwww",
"wwwwwwwwwwwwww>&....%5wwwwwwww",
"wwwwwwwwwwwwwww52>>>2qwwwwwwww",
"wwwwwwwwwwwwwwwwwwwwwwwwwwwwww",
"wwwwwwwwwwwwwwwwwwwwwwwwwwwwww",
"wwwwwwwwwwwwwwwwwwwwwwwwwwwwww",
"wwwwwwwwwwwwwwwwwwwwwwwwwwwwww",
"wwwwwwwwwwwwwwwwwwwwwwwwwwwwww",
"wwwwwwwwwwwwwwwwwwwwwwwwwwwwww"
};
