/* XPM */
static const char *_[] = {
/* columns rows colors chars-per-pixel */
"50 50 100 2 ",
"   c gray43",
".  c #6C6C6C",
"X  c #606060",
"o  c #5D5D5C",
"O  c DimGray",
"+  c #6F6F6F",
"@  c #616160",
"#  c #656565",
"$  c #5C5C5B",
"%  c #6D6D6D",
"&  c #666665",
"*  c #646463",
"=  c gray42",
"-  c #6A6A69",
";  c #6A6A6A",
":  c #656564",
">  c #686868",
",  c #5F5F5F",
"<  c gray36",
"1  c gray40",
"2  c #636362",
"3  c #5B5B5A",
"4  c #60605F",
"5  c gray39",
"6  c #646464",
"7  c gray38",
"8  c #5F5F5E",
"9  c #5A5A59",
"0  c #595958",
"q  c #595957",
"w  c #5B5B5B",
"e  c #6D6D6C",
"r  c #6C6C6B",
"t  c #696968",
"y  c #6E6E6D",
"u  c gray52",
"i  c #868686",
"p  c #838383",
"a  c #7C7C7C",
"s  c gray53",
"d  c #737372",
"f  c #5E5E5D",
"g  c #878786",
"h  c gray48",
"j  c #7B7B7B",
"k  c gray47",
"l  c gray45",
"z  c #747474",
"x  c #7B7B7C",
"c  c #676767",
"v  c #6B6B6C",
"b  c #676766",
"n  c gray37",
"m  c #585857",
"M  c #5D5D5D",
"N  c #626262",
"B  c #808080",
"V  c #818181",
"C  c #7E7E7E",
"Z  c gray51",
"A  c #70706F",
"S  c #808081",
"D  c gray44",
"F  c #6B6B6A",
"G  c #626261",
"H  c #686867",
"J  c #686869",
"K  c #777777",
"L  c #767675",
"P  c #717171",
"I  c #787877",
"U  c #797978",
"Y  c #727272",
"T  c #7A7A7B",
"R  c #6D6D6E",
"E  c #585858",
"W  c #525251",
"Q  c #50504F",
"!  c #676768",
"~  c #4A4A49",
"^  c gray31",
"/  c #474746",
"(  c #515151",
")  c #505050",
"_  c #484847",
"`  c #464645",
"'  c #4E4E4E",
"]  c #4C4C4B",
"[  c #4B4B4B",
"{  c #454544",
"}  c gray27",
"|  c #444443",
" . c #434342",
".. c #424241",
"X. c #444444",
"o. c #515150",
"O. c #4E4E4D",
"+. c #4B4B4A",
"@. c #555554",
"#. c white",
/* pixels */
"    . X o O + . @ o O           # $ #                 . @ o O             . @ o O                   ",
"    % & * = + % @ o -           # $ #                 % @ o ; +           % @ o -                   ",
"% % % . . %   . X o O   % % % % : $ : % % % % % % %   . @ o > % % % % %   . X o O   % % % % % % % % ",
"; ; ; ; ; ; ; O , < 1 ; ; ; ; ; 2 3 2 ; ; ; ; ; ; ; ; O 4 3 4 # O ; ; ; ; O , < 1 ; ; ; ; ; ; ; ; ; ",
"5 5 5 * 6 5 * 5 o 3 7 6 6 * 5 * 8 9 8 * 5 * 6 * 5 5 * 5 o 0 q o 5 6 6 5 * 5 o 3 7 6 5 5 5 6 * 5 5 5 ",
"3 3 w $ $ w w 3 9 0 3 $ $ $ 3 w 9 0 9 w 3 $ $ $ 3 3 w 3 9 0 0 9 3 $ $ w w 3 9 0 3 w 3 3 w $ $ w 3 3 ",
"e % r 4 o t % e e % e 6 3 6 e e e e e e e 6 3 6 e e e e e % % y r 4 o t % e e e e e e % t o 4 r % e ",
"u i p t 7 a s u u i i d f d i i u u u i i d f d i i u u u u u g p t 7 a s u u u u u u s a 7 t p i u ",
"h j k : , l j h h h h . o . h h h h h h h . o . h h h h h h h j k : 4 z x h h h h h h j l , : k j h ",
"%   . @ o O   % % % % : $ : % % % % % % % : $ : % % % % % % %   . @ $ & = % % % % % %   O o @ .   % ",
"%   . @ o O   % %     # $ #     % % %     # $ #     % % % % %   . 7 9 $ 5 .   % % % %   O o @ .   % ",
"= . ; 4 o c . = = = = * w * = = = = = = = * w * = = = = = = = . ; X 9 o 5 ; v = = = = . c o 4 ; . = ",
"1 b # f $ * c 1 1 1 1 @ 3 @ 1 1 1 1 1 1 1 @ 3 @ 1 1 1 1 1 1 1 b # f $ 2 1 1 1 1 1 1 1 c * $ f # b 1 ",
"o o < 9 0 $ o o f n o 3 m 3 o o M n M o o 3 m 3 o o M n M o o o < 9 0 $ M o f f o o o o $ 0 9 < o o ",
"2 2 2 2 2 2 2 N o 3 @ 5 2 2 2 2 8 9 8 2 2 2 2 2 2 2 8 9 8 2 2 2 2 2 2 2 2 N o 3 @ 5 2 2 2 2 2 2 2 2 ",
"B B B B B B V C c X k Z B B V V A f A V V B B B V V A f A V V B B B B B V C c X k Z B B B B B B B B ",
"B B B B B B V C c @ k Z V S V V D f D V V B B B V V D f D V V B B B B B V C c @ k Z B B B B B B B B ",
"+ + + + + + D   7 M F +   + + + 1 $ 1 + + + + + + + 1 $ 1 + + + + + + + D   7 M F D + + + + + + + + ",
"% % % % % %   . X o O > G H % % : $ : % % % % % % % : $ : % % % % % % %   . X o O   % % % % % % % % ",
". . . . . . % = X o t 1 f # % % 6 $ 6 % . . . . . % 6 $ 6 % . . . . . . % = X o > % . . . . . . . . ",
"> > > > > > J c 8 $ # c 6 1 > > N 3 N > > > > > > > N 3 N > > > > > > > J c 8 $ # O > > > > > > > > ",
"4 4 4 @ 7 X X , 3 9 n X X 7 7 X o 0 o 4 4 X 7 X 4 4 o 0 o 4 4 4 4 @ 7 X X , 3 9 n X 4 4 X 7 @ 4 4 4 ",
"o o o 3 3 $ o o < $ o o o 3 3 $ o $ o o o $ 3 $ o o o $ o o o o o 3 3 $ o o < $ o o o o $ 3 3 o o o ",
"K k L * 8 P k K I I K k L * 8 P U I K I I F < F I I K I K K K k L * 8 P k K I I K K K k P 8 * L k K ",
"u i Z t 7 a i u u u u i Z t 7 a i u u u u d f d u u u u u u u i Z t 7 a i u u u u u u i a 7 t Z i u ",
"l z Y 2 f   z l l l l z Y 2 f   z l l z z t < t z z l l l l l z Y 2 f   z l l l l l l z   f 2 Y z l ",
"% % . X o O % % % % % % . X o O % % % % % : $ : % % % % % % % % . X o O % % % % % % % % O o X . % % ",
"%   . X o O   % % % % % = X o O   % % % % : $ : % % % % % % %   . X o O   % % % % % %   O o X .   % ",
"; ; O , < 1 ; ; ; ; ; b 7 $ o 1 ; ; ; ; ; 2 3 2 ; ; ; ; ; ; ; ; O , < 1 ; ; ; ; ; ; ; ; 1 < , O ; ; ",
"5 * 5 o 3 7 6 5 * 6 * , 0 m 3 7 6 6 * 5 * 8 9 8 * 5 5 5 * 6 5 * 5 o 3 7 6 5 * 6 5 5 5 6 7 3 o 5 * 5 ",
"3 w 3 9 0 3 w w $ $ w 9 0 0 0 3 $ $ $ 3 w 9 0 9 w w 3 w $ $ w w 3 9 0 3 w w $ $ w 3 3 w 3 0 9 3 w 3 ",
"e e e e e e % r 4 o t y % % % e 6 3 6 e e e e e e e % r 4 o t % e e e e % r 4 o t % e e e e e e e e ",
"u u u u u u g p t 7 a s u u i i d f d i i u u u u u g p t 7 a s u u u u g p t 7 a s u u u u u u u u ",
"h h h h h h j k : , l j T h h h . o . h h h h h h h j k : , l j h h h h j k : , l j h h h h h h h h ",
"% % % % % %   . @ o O . - = % R : $ : % % % % % % %   . @ o O   % % % %   . @ o O   % % % % % % % % ",
"% % % % % %   . @ o O c 8 1     # $ #     % % % % %   . @ o O   % % % %   . @ o O   % % % % % % % % ",
"= = = = = = . ; 4 o H 1 4 & v . * w * = = = = = = = . ; 4 o c . = = = = . ; 4 o c . = = = = = = = = ",
"1 1 1 1 1 1 b # f $ * 1 # 1 1 1 @ 3 @ 1 1 1 1 1 1 1 b # f $ * c 1 1 1 1 b # f $ * c 1 1 1 1 1 1 1 1 ",
"o o o f f o o < 9 0 $ o M f n o 3 m 3 o o o o f f o o < 9 0 $ f n M o o o < 9 0 $ o o o o f f o o o ",
"2 2 N o 3 @ 5 2 2 2 2 2 N o 3 @ 5 2 2 2 2 2 N o 3 @ 5 2 2 2 2 8 9 8 2 2 2 2 2 2 2 2 2 5 @ 3 o N 2 2 ",
"B V C c X k Z B B B B V C c X k Z B B B B V C c X k Z B B V V A f A V V B B B B B B B Z k X c C V B ",
"B V C H @ k Z B B B B V C H @ k Z B B B B V C H @ k Z B B V V D f D V V B B B B B B B Z k @ H C V B ",
"+ D   X < ; D + + + + D   X < ; D + + + + D   X < ; D + + + + # 3 # + + + + + + + + + D ; < X   D + ",
"  + . E W c +         + . E W c +         + . E W c +         4 Q 4                   + c W E . +   ",
"c ! : Q ~ , > c c c c c 5 ^ ~ , > c c c c > : Q ~ , > c c c c m / m c c c c c c c c c > , ~ Q : ! c ",
"( ( ) _ ` ' ( ( ( ( ( ^ ] ` ` ' ( ( ( ( ( ( ) _ ` ' ( ( ( ( ( [ { [ ( ( ( ( ( ( ( ( ( ( ' ` _ ) ( ( ",
"} } } |  .{ } } ` ` } | .... .{ ` ` } } } } } |  .{ } } ` ` } X. .X.} } } } } } ` ` } } {  .| } } } ",
"{ { { { { { { { | | { { { { { { { | { { { { { { { { { { | | { { { { { { { { { { | | { { { { { { { { ",
"o.o.o.o.o.o.o.Q _ ` O.W o.o.o.o.+.{ +.o.o.o.o.o.o.o.o.Q _ ` O.W o.o.o.o.o.o.o.O.` _ Q o.o.o.o.o.o.o.",
"9 9 9 9 9 9 3 0 +._ @.3 9 9 9 9 Q ` Q 9 9 9 9 9 9 9 3 0 +._ @.3 9 9 9 9 9 9 3 @._ +.0 3 9 9 9 9 9 9 "
};
