/* XPM */
static const char *c[] = {
/* columns rows colors chars-per-pixel */
"15 30 175 2 ",
"   c #113362",
".  c #143C6D",
"X  c #1C3B68",
"o  c #153F70",
"O  c #094470",
"+  c #0E4A7E",
"@  c #184178",
"#  c #254A75",
"$  c #254C79",
"%  c #244771",
"&  c #42567B",
"*  c #1C4A83",
"=  c #164986",
"-  c #145383",
";  c #115688",
":  c #1D548A",
">  c #195F9B",
",  c #20588D",
"<  c #255996",
"1  c #21639F",
"2  c #3B6698",
"3  c #186EA7",
"4  c #2467A2",
"5  c #346EA0",
"6  c #2872AF",
"7  c #3771A7",
"8  c #3779A9",
"9  c #3A70A2",
"0  c #2777B5",
"q  c #277FB4",
"w  c #297BB9",
"e  c #2B79B6",
"r  c #455E81",
"t  c #4D6487",
"y  c #4C6388",
"u  c #497A9D",
"i  c #507C97",
"p  c #58779D",
"a  c #507D98",
"s  c #5C7C9F",
"d  c #557294",
"f  c #657C9C",
"g  c #5A77A0",
"h  c #647FA7",
"j  c #1D83BD",
"k  c #368AA2",
"l  c #3892AC",
"z  c #2B85BC",
"x  c #3981B9",
"c  c #3FA1BF",
"v  c #55829E",
"b  c #6A8F9E",
"n  c #6A909F",
"m  c #548CAC",
"M  c #4B81B6",
"N  c #6E8BAB",
"B  c #6596AB",
"V  c #699BAC",
"C  c #6793A3",
"Z  c #6899B7",
"A  c #7A93B3",
"S  c #4BA4BF",
"D  c #7AA4AC",
"F  c #6EA3B6",
"G  c #68A0BB",
"H  c #72A3B5",
"J  c #74AABE",
"K  c #7AABBD",
"L  c #2B83C3",
"P  c #298AC7",
"I  c #3187C6",
"U  c #338BC1",
"Y  c #2890CF",
"T  c #2393CF",
"R  c #3392CD",
"E  c #2599D7",
"W  c #2999D7",
"Q  c #2C97D8",
"!  c #2F9CD9",
"~  c #3196D0",
"^  c #3997D4",
"/  c #389AD5",
"(  c #3BA8C9",
")  c #31A0D5",
"_  c #3FA8DE",
"`  c #2FB1E6",
"'  c #2EB3EB",
"]  c #3FB0E3",
"[  c #33BDF4",
"{  c #438BC1",
"}  c #4998CD",
"|  c #4C91C1",
" . c #539EC9",
".. c #42AECF",
"X. c #5BA1CF",
"o. c #4DA0D7",
"O. c #42ADD0",
"+. c #5CA6D2",
"@. c #5AA8D6",
"#. c #4DBCDF",
"$. c #58BAD4",
"%. c #68A7C1",
"&. c #66A7CF",
"*. c #7BADC0",
"=. c #7EB9C8",
"-. c #79B1C4",
";. c #63B0D9",
":. c #7BB6D7",
">. c #41AAE2",
",. c #4DBDE2",
"<. c #51BFE2",
"1. c #5CC1DF",
"2. c #6ACBDE",
"3. c #7AC2DB",
"4. c #59C8EB",
"5. c #50C6F7",
"6. c #67CEEC",
"7. c #68CEEC",
"8. c #62CAE5",
"9. c #7CC6E3",
"0. c #6CD3ED",
"q. c #7CE0F2",
"w. c #809CB9",
"e. c #81AEB7",
"r. c #92A4BD",
"t. c #94A2B6",
"y. c #96ABC2",
"u. c #82B6CA",
"i. c #9CB2CA",
"p. c #89B4D2",
"a. c #80C0CE",
"s. c #8EC1C6",
"d. c #92CACD",
"f. c #87C7D5",
"g. c #8BCAD9",
"h. c #96CCD3",
"j. c #95C7D5",
"k. c #8ED4DC",
"l. c #97D7DA",
"z. c #9DD7D9",
"x. c #97D8DA",
"c. c #9BD8DB",
"v. c #93D0D4",
"b. c #AFC8DD",
"n. c #BBC5D5",
"m. c #A1DADD",
"M. c #AEDDDF",
"N. c #A1D6D9",
"B. c #B0D4D7",
"V. c #B8DADC",
"C. c #84CCEB",
"Z. c #93D6E1",
"A. c #95D8E2",
"S. c #AAC7E1",
"D. c #AFD0E3",
"F. c #ACDFE1",
"G. c #B2DFE1",
"H. c #8CE9F5",
"J. c #97E5F3",
"K. c #B5E2E3",
"L. c #B6E1E5",
"P. c #AEE7F1",
"I. c #B7EBF3",
"U. c #A5F0F7",
"Y. c #BFF2F7",
"T. c #C0E7E9",
"R. c #DBE7EF",
"E. c #C8EAF5",
"W. c #C9F5F9",
"Q. c #D7F8FB",
"!. c #D3F6FA",
"~. c #E2FBFC",
"^. c #FCFFFF",
"/. c #F4FDFD",
"(. c None",
/* pixels */
"(.(.(.(.(.(.(.P.(.(.(.(.(.(.(.",
"(.(.(.(.(.(.Y.1.( (.(.(.(.(.(.",
"(.(.(.(.(.~.!.8.O.l (.(.(.(.(.",
"(.(.(.(.Q./.W.6.#...l (.(.(.(.",
"(.(.(.W.J.J.U.7.<.,...k (.(.(.",
"(.(.(.(.0.q.H.7.4.,.( (.(.(.(.",
"(.(.(.(.(.8.2.$.S c (.(.(.(.(.",
"(.(.(.(.(.p.G m v d (.(.(.(.(.",
"(.(.(.(.(.i.n.N p t (.(.(.(.(.",
"(.(.(.(.(.w.r.s d y (.(.(.(.(.",
"(.(.(.(.(.f t r r & (.(.(.(.(.",
"(.(.(.(.(.e.n C b D (.(.(.(.(.",
"(.(.(.(.(.z.d.s.B.V.(.(.(.(.(.",
"(.(.(.(.(.N.m.z.K.L.(.(.(.(.(.",
"(.(.(.(.M.K.c.c.F.M.d.(.(.(.(.",
"(.(.(.N.M.K.m.c.F.K.l.h.(.(.(.",
"(.(.(.z.G.T.x.x.x.c.l.v.(.(.(.",
"(.(.k.Z.L.E.A.A.A.A.Z.9.g.(.(.",
"(.m.3.;.E.D. .@.+.+. .C.C.a.(.",
"(.u.:.b.R.u O ; - - m &.| %.(.",
"u.7 S.^.I.g.j.j.j.f.:.x 1 5 =.",
"*.< b.:.} { { X.+.+.{ e 6 1 -.",
"J * A M R w L 0 w w I / ^ 4 J ",
"*.* * : 0 Q P L ~ R >._ U , H ",
"K @ A 2 > Y T W ) ] 5.U : . H ",
"F . r.g = 3 E ' ` ! z 8 : @ K ",
"H # X t.h 9 j [ ' o.Z r.. $ K ",
"(.B % X t.s + q z Z y.$ # B (.",
"(.(.B i         . . o a C (.(.",
"(.(.(.(.V F V V V V V (.(.(.(."
};
