/* XPM */
static const char *c[] = {
/* columns rows colors chars-per-pixel */
"50 45 187 2 ",
"   c #54433A",
".  c #59473D",
"X  c #5A483F",
"o  c #284D78",
"O  c #29517D",
"+  c #38577E",
"@  c #365A7D",
"#  c #335579",
"$  c #5D4B41",
"%  c #544640",
"&  c #5D5452",
"*  c #5A5D5B",
"=  c #634F44",
"-  c #645045",
";  c #64544A",
":  c #68574D",
">  c #65584F",
",  c #68584E",
"<  c #605350",
"1  c #655951",
"2  c #6A5B52",
"3  c #58615F",
"4  c #67615A",
"5  c #68635D",
"6  c #576262",
"7  c #566568",
"8  c #4F627D",
"9  c #546A7A",
"0  c #536775",
"q  c #5C717E",
"w  c #666563",
"e  c #6C6B65",
"r  c #6C6D6A",
"t  c #686A67",
"y  c #716E6C",
"u  c #74746E",
"i  c #656F73",
"p  c #6A7374",
"a  c #647376",
"s  c #767973",
"d  c #787F7B",
"f  c #837F79",
"g  c #7C817D",
"h  c #2A5782",
"j  c #2D5A84",
"k  c #205488",
"l  c #20598F",
"z  c #2E5E8E",
"x  c #355C83",
"c  c #3B5D82",
"v  c #3B628A",
"b  c #24649C",
"n  c #2C6598",
"m  c #3C6A98",
"M  c #38719C",
"N  c #2572AD",
"B  c #2A71AA",
"V  c #3474A3",
"C  c #3879A9",
"Z  c #2877B2",
"A  c #2E7FB4",
"S  c #4D6985",
"D  c #496A8C",
"F  c #526D87",
"G  c #5D7C8C",
"H  c #426A92",
"J  c #516E91",
"K  c #5A7E91",
"L  c #577799",
"P  c #647784",
"I  c #607F8F",
"U  c #617C9D",
"Y  c #407BA7",
"T  c #4A79A7",
"R  c #5A7CA2",
"E  c #2D81BE",
"W  c #2783BE",
"Q  c #3383BE",
"!  c #4A8392",
"~  c #4D8A9E",
"^  c #5A8195",
"/  c #5B8298",
"(  c #67818B",
")  c #7E908E",
"_  c #608397",
"`  c #62869B",
"'  c #64889B",
"]  c #728B92",
"[  c #759399",
"{  c #78989D",
"}  c #749194",
"|  c #4F8FA3",
" . c #5782A4",
".. c #4F88B0",
"X. c #4088BB",
"o. c #4E85B4",
"O. c #5A8DB0",
"+. c #5894B6",
"@. c #479CB6",
"#. c #708EAE",
"$. c #6D92A2",
"%. c #6092AA",
"&. c #7B98A8",
"*. c #689ABA",
"=. c #7D97B7",
"-. c #6789AA",
";. c #6EA9BC",
":. c #74A5B4",
">. c #2685C1",
",. c #268AC6",
"<. c #2D8DC9",
"1. c #3286C2",
"2. c #338DC7",
"3. c #2792CE",
"4. c #3A93CB",
"5. c #2898D3",
"6. c #2794D0",
"7. c #369AD3",
"8. c #2BA6DF",
"9. c #34A0D9",
"0. c #39A9DF",
"q. c #3DA5DB",
"w. c #2EACE4",
"e. c #30AAE1",
"r. c #4C94C5",
"t. c #489ECF",
"y. c #559EC5",
"u. c #579FCA",
"i. c #5197C1",
"p. c #47A6C3",
"a. c #5CA3CB",
"s. c #5FA1C5",
"d. c #4AAFD0",
"f. c #41ADDE",
"g. c #4CB8DC",
"h. c #5DB4D3",
"j. c #67AACA",
"k. c #70ACC5",
"l. c #77A6C1",
"z. c #7AB5CB",
"x. c #77BDD5",
"c. c #69C2D7",
"v. c #54C0E1",
"b. c #6CCCE4",
"n. c #72CCE7",
"m. c #77D3E7",
"M. c #808E8B",
"N. c #849492",
"B. c #83A2A6",
"V. c #8BAAB1",
"C. c #8CB3B5",
"Z. c #9DBCBC",
"A. c #94BABC",
"S. c #A6BEBE",
"D. c #94ADC7",
"F. c #8FBFC6",
"G. c #87BAD3",
"H. c #9CBCD5",
"J. c #89A9C7",
"K. c #96C7CB",
"L. c #87CCDF",
"P. c #8ACFDE",
"I. c #88C3D8",
"U. c #9CD5D9",
"Y. c #9CD9DB",
"T. c #98D1D6",
"R. c #97C3D8",
"E. c #A1CBCD",
"W. c #B4C3C1",
"Q. c #A7D0D1",
"!. c #A3DADD",
"~. c #ACDBDC",
"^. c #ADD2D3",
"/. c #81DEEE",
"(. c #96D4E0",
"). c #ACD3E3",
"_. c #ADDFE0",
"`. c #B0DEE7",
"'. c #B0D8E9",
"]. c #B8D5E6",
"[. c #9CE9F5",
"{. c #AEE0E1",
"}. c #B7E2E9",
"|. c #A3E7F4",
" X c #BEEBF4",
".X c #C6E1EC",
"XX c #D3EBEF",
/* pixels */
"        $ = = = - = - - - - - - = X         X = - - - - - - - - - - - - - - - - - - - - - - = - - = ",
"        . $ = = = - - - - - - = = $ $ $ $ $ $ = = - - - - - - - - - - - - - - - - - - - = - - = = = ",
"          $ = = = - - - - - - = = = = = = = = = = - - - - - - - - - - - - - - - - - - - - - = = = = ",
"          X = = - - - - - - - = = = - = = - = = = - - - - - - - - - - - - - - - - - = - - - = = $ $ ",
"          . $ = = - - - - - - - - - - - - - - - - - - - - - - - - - - - - - - - - - - - - - = = $ X ",
"$       $ $ = = = - - - - - - - - - - - - - - - - - - - - - - - - - - - - - - - - - - - = - = = = $ ",
"= $ $ $ = = = = = - - - - - - - - - - = - - - - = - - - - - - - - - - - - - - - - - - - - - = = = = ",
"- = = = = - = = = - - - - - - - - - - - - = = = - = = = - - - - - - - - - - - - - - - - - - = = = - ",
"- = = - = - = = - - - - - - - - - - = - = = - = = - - = - - - - - - - - - - - - - - - - - - = = = - ",
"= - - - - = - - - - - - - - - - - - - = = - - ; 2 ; - = = - - - - - - - - - - - - - - - - - - - - = ",
"- - - - - - - - - - - - - - - - = - = - = - 2 g B.a ; - - = - = - - - - = - - - - - - = - - - - - - ",
"- - - - - - - - - - - - - - - = - = - = - , f A.x.| 6 - = - = - - = = - - - - - - - = - - = = - - - ",
"- - - - - - - - - - - - - - = - - = - - : f W.}.b.p.! 3 - - = - - = = = = = = = = = = = = = = = = - ",
"- - - - - - - - - - - - - - = - - - = ; s S.XX Xn.g.p.! * - = - = - = = $ $ X $ $ $ $ $ = = - = = - ",
"- - - - - - - - - - - - - - = - - - = 2 N.T.|.[.n.v.g.@.9 < = = = - = = X           . X = = - = = - ",
"= - - = = - - - - - - - - - = - - = = ; r :.m./.b.v.d.~ 6 = - - - - = = $ .       X $ = = = - - - = ",
"= = = = = - - - - - - - - - - - - = - = ; p ;.c.h.p.~ 7 - = = - - - = - = $ $ $ $ $ = = = = - - - - ",
"X X $ = - - - - - - - - - - - = = - = = - r &.l.+. .F & - - = = = - - = = = = = = = = = = - - = - - ",
"  . $ = - = - - - - - - - - - - - - = - ; y V.D.#.L 8 & - - = - - = - = = = - - - = = - - = - - - - ",
"= $ = = - - - - - - - - - - - - - - = - ; r &.=.U J 8 & = = - - - = = - - = = - = = = - - - - - - - ",
"= = = = = - - - - - - - - - - - - - = = - 5 P L J S 0 & - - - - - - - - - = = - - - - = - - - - - - ",
"- - - - - - - - - - - - - - - - - - - = - e [ $.$.$.] w - = - - = - - - = - - = - - - - - - - - - - ",
"- - - - - - - - - = = - = = - - - = - = ; d A.K.F.E.Z.s - = = = = = = = = = - - - - - - - - - - - - ",
"- - - - - - - - = - - - - - - = - - = = 2 N.K.U.U._.^.M.1 = $ $ $ $ $ = = = - - - = - - - - - - - - ",
"- - - - - - - - = - - - - = = = = - = ; u Z.~.!.Y.~.~.C.r = .       . $ = = - - - - - - - - - - - - ",
"- - - - - - - - - = = = = = = = = $ = > N.Q.{.!.Y.!.!.K.) > $ $ $ $ $ = = = - = - - - - - - - - - - ",
"- - - - - - - - - - = = = = $ .     X w V.~.}.!.Y.Y.Y.T.V.r - = = = = = = = - - - - - - - - - - - - ",
"- - - - - - - - = = = = $ X         * [ I.`.}.(.P.P.P.L.x.{ e ; - = - = = = - - - - - - - - - - - - ",
"- - - - - - - - = = - = X         & } z.I.'.R.s.y.y.y.j.x.z.] 4 - = = = = = - - - - - - - - - - - - ",
"- - - - - - - - = = - = X         i :.G.).].*.M V V C +.a.i.%.p - = - - - - - - - - - - - - - - - - ",
"- - - - - - - - = = = = = $ X $ - ( O.H..X).z.;.k.k.k.a.X.B Y ( ; = - - - - - - - - - - - - - - - - ",
"- - - - - - - - - = = = - = = = > ' T J.G.a.r.r.u.a.a.r.Q N V ' > = - = - - - - - - - - - - - - - - ",
"- - - - - - - - - = = = - - - = > ' m R o.1.E E E Q 1.2.4.1.C _ > = - - - - - - - - - - - - - - - - ",
"- - - - - - - - - - - - = = = = : ' z z n Z ,.,.>.<.7.q.7.A n I ; = = - - = - - - - - - - - - - - - ",
"- - - - - - - - - - - - - - = = 1 _ v L m b >.3.5.9.0.f.2.b j G - $ = = - - - - - - - - - - - - - - ",
"- - - - - - - - - - - - - - = = > K x U R n N 6.w.w.9.4.C k h G $ . $ = = = - - - - - - - - - - - - ",
"- - - - - - - - - - - - - - - = > P @ + U R C W 8.e.t.*. .O x q %   . $ = = - - - - - - - - - - - - ",
"- - - - - - - - - - - - - - - = - w 9 # c L H l N A ..-.D @ 0 *       $ = = - - - - - - - - - - - - ",
"- - - - - - - - - - - - - - - = - ; w q S c O o O h j v D 9 * $     . = = = - - - - - - - - - - - - ",
"- - - - - - - - - - - - - - = - - - ; 5 i G / ^ ^ K K G i 4 - = = = = = = = - - - - - - - - - - - - ",
"- - - - - - - - - - - - - - - - = - - - ; > 1 1 1 > > > ; - = = = = = = = = - - - - - - - - - - - - ",
"- - - - - - - - - - - - - - - - - = = = = = = = = = = = = = - - - - - - - - - - - - - - - - - - - - ",
"- - - - - - - - - - - - - - - - - - - - - - - - - - - - - - - - - - - = = = - = = = = = = - = = - = ",
"- - - - - - - - - - - - - - - - - - - - - - - - - - - - - - - - - - = - - - = - - - - - - = - - = - ",
"- - - - - - - - - - - - - - - - - - - - - - - - - - - - - - - - - - = - - - - - = = - = - - - - = - "
};
