/* XPM */
static const char *e[] = {
/* columns rows colors chars-per-pixel */
"30 30 128 2 ",
"   c #0D0B0C",
".  c #0F0E10",
"X  c #131215",
"o  c #151519",
"O  c #18171B",
"+  c #17181C",
"@  c #191A1E",
"#  c #1E1F23",
"$  c #1F2026",
"%  c #202125",
"&  c #21232A",
"*  c #272931",
"=  c #292C35",
"-  c #2B2E38",
";  c #2E323C",
":  c #35373F",
">  c #4A403F",
",  c #55443D",
"<  c #59473F",
"1  c #5A483F",
"2  c #363943",
"3  c #3B3D45",
"4  c #3B3F49",
"5  c #413F43",
"6  c #3E424C",
"7  c #3F4550",
"8  c #454246",
"9  c #4D4544",
"0  c #44454C",
"q  c #4B4749",
"w  c #4D494C",
"e  c #544742",
"r  c #554845",
"t  c #5D4B42",
"y  c #544C4C",
"u  c #5B4E49",
"i  c #5D514D",
"p  c #424652",
"a  c #454A55",
"s  c #4B4C53",
"d  c #464C5A",
"f  c #494E5A",
"g  c #524E52",
"h  c #4F5057",
"j  c #4D515C",
"k  c #555154",
"l  c #5B5353",
"z  c #53545B",
"x  c #59565A",
"c  c #5D5A5D",
"v  c #624E44",
"b  c #645045",
"n  c #62524B",
"m  c #69564E",
"M  c #635652",
"N  c #635855",
"B  c #6B5B55",
"V  c #635C5B",
"C  c #6A5D58",
"Z  c #72625A",
"A  c #4E5461",
"S  c #515661",
"D  c #555963",
"F  c #5B5C63",
"G  c #545A68",
"H  c #5A5F69",
"J  c #625F62",
"K  c #5F6066",
"L  c #5E626C",
"P  c #636164",
"I  c #6B6463",
"U  c #64666D",
"Y  c #6D6A6C",
"T  c #736661",
"R  c #786760",
"E  c #756863",
"W  c #796B64",
"Q  c #726D6E",
"!  c #746E6F",
"~  c #746C6B",
"^  c #7A6D68",
"/  c #786F6D",
"(  c #78706C",
")  c #606672",
"_  c #646770",
"`  c #666B74",
"'  c #646974",
"]  c #686B73",
"[  c #6C6C72",
"{  c #6D6D72",
"}  c #696C74",
"|  c #6C6E75",
" . c #6B6D73",
".. c #6A6F78",
"X. c #696F7A",
"o. c #716E71",
"O. c #6F737B",
"+. c #777474",
"@. c #777374",
"#. c #787372",
"$. c #7E7673",
"%. c #7B7372",
"&. c #7F7875",
"*. c #77767A",
"=. c #73747A",
"-. c #77797F",
";. c #7E7B7B",
":. c #7F7B7C",
">. c #7D7878",
",. c #83746D",
"<. c #83746E",
"1. c #88786F",
"2. c #847E7C",
"3. c #907E74",
"4. c #86807F",
"5. c #91837C",
"6. c #757982",
"7. c #7D7C80",
"8. c #7F7F82",
"9. c #7A7A80",
"0. c #7B7F88",
"q. c #80848D",
"w. c #9D8C83",
"e. c #A49186",
"r. c #A5948C",
"t. c #B09E95",
"y. c #CDBFB9",
"u. c #D9CBC4",
/* pixels */
", t v v v b b b b v t , , t v v v v v v b v v b b b b b b b ",
", , t v v b b b v v v t t R e.w.Z v v v v v v b b b b b b v ",
", , t v v v b b v v b m n 5.u.y.,.n m v v v v v v v v b b v ",
", 1 t v v v v v v t n 3.^ ~ t.r.T ,.1.v t v v v v v b v v v ",
"v v v v v t M N i u e $.+.D ~ ~ D 2.~ e b i V n v v v v v v ",
"v v v v v B U h z ! l U F z F F z P P N ! s S I m v v v b v ",
"v v v v i P Q l 4 c M s i M j z m y s B z 3 V Y V u v b b b ",
"v v v t y c W M 8 g x 6 u Z h z Z 9 p x w 0 B E x u v v v v ",
"b b b v u w r i x D L j s 4.*.7.;.a A L D x u y w u t v v v ",
"b b b v b 8 w #.U S j d p D F F z p d A D [ ! 0 q t 1 v v v ",
"v v v v 1 r U -.f 3 - = = * & & * - = ; 4 S 7.F r , t v v b ",
"v v b v e y L ) 2 o . . . . . . . . . . + 6 ' F r t v v b v ",
"v v v v e y z ..p X                     + A ] z r t v v b b ",
"v v b v t e k | p o                     + z [ y e t v b b b ",
"b b b v t v I U 6 o                     + a ] V t t v b b b ",
"b b v v t n Y F z O                     % D F Y u t v v b v ",
"b v e 9 9 z f D D o                     # U j j k 8 e t v b ",
"v e 5 z g y g ' 0 X                     o z L y r g h 5 e v ",
"v > p L l B Q z ; X                     o 3 D ! m N H 4 , v ",
"v e z o.T Y H 4 ; X                     o 2 6 U I W Y k t v ",
"v v n >.>.F s y : X                     o 3 y s F 2.^ u v v ",
"v t t V L h N c 3 o                     + 6 c x j U N t t v ",
"u l l l s z P a 7 +                     $ a f J s g M k l u ",
"k D c *.=.0 0 f S #                     * G a 6 s -.[ z D g ",
"q 0 a U | 4 6 D ' = X X o X     X X X o 2 ..A 4 0 O.F p 0 y ",
"8 : j A f p d j 6.| a z F 3 * * 6 F z j O.=.d d p f A a 2 9 ",
"3 0 U D 4 f 0 r T @._ q...A z j A 6.0.U #.C 9 s d 4 H F 8 8 ",
"5 8 s L f a q i n N F D z s s s s S D c N n i q a j H s 8 5 ",
"t r r l x q u M i l y q u t t t t y q y k i M r q c i 9 y r ",
"v v v v t t v b u r e t v v v v v v t e e u b v t v v v v v "
};
