/* XPM */
static const char *e[] = {
/* columns rows colors chars-per-pixel */
"45 45 211 2 ",
"   c #0A0708",
".  c #0E0C0D",
"X  c #100F10",
"o  c #0F1013",
"O  c #16151A",
"+  c #1A191D",
"@  c #1B1C22",
"#  c #1B1E28",
"$  c #201E21",
"%  c #1D2127",
"&  c #22232B",
"*  c #27282D",
"=  c #272527",
"-  c #37302F",
";  c #212532",
":  c #232A34",
">  c #2B2D35",
",  c #272D3C",
"<  c #2A2D3C",
"1  c #232739",
"2  c #2D323C",
"3  c #333236",
"4  c #34353B",
"5  c #3A363A",
"6  c #3A393D",
"7  c #373538",
"8  c #362D29",
"9  c #47332C",
"0  c #433534",
"q  c #433C3B",
"w  c #4A3C3E",
"e  c #463937",
"r  c #543D36",
"t  c #422E29",
"y  c #4D413C",
"u  c #5C423B",
"i  c #54423A",
"p  c #67483E",
"a  c #2C3442",
"s  c #2F3749",
"d  c #2F3B4A",
"f  c #343643",
"g  c #333A45",
"h  c #3A3C43",
"j  c #34374A",
"k  c #333B4A",
"l  c #393E49",
"z  c #3A3248",
"x  c #312E50",
"c  c #353E51",
"v  c #393953",
"b  c #443F44",
"n  c #453E47",
"m  c #3C414C",
"M  c #34404F",
"N  c #364354",
"B  c #3D4453",
"V  c #3F4856",
"C  c #3D4A5B",
"Z  c #3F455B",
"A  c #434145",
"S  c #4B4343",
"D  c #43454C",
"F  c #4A4748",
"G  c #4D4A4D",
"H  c #534545",
"J  c #5C4542",
"K  c #5C4B43",
"L  c #544C4B",
"P  c #564A48",
"I  c #5D514D",
"U  c #58504B",
"Y  c #414754",
"T  c #444A55",
"R  c #4B4C52",
"E  c #444C5B",
"W  c #464B5A",
"Q  c #4C525C",
"!  c #45525F",
"~  c #555253",
"^  c #5B5454",
"/  c #54555C",
"(  c #56595D",
")  c #5A5A5C",
"_  c #5E5957",
"`  c #554B50",
"'  c #624C44",
"]  c #694E45",
"[  c #6E5446",
"{  c #64534C",
"}  c #6B544C",
"|  c #74564A",
" . c #755648",
".. c #645954",
"X. c #6B5B54",
"o. c #625C5C",
"O. c #695C58",
"+. c #655452",
"@. c #735D54",
"#. c #7C5E52",
"$. c #735F59",
"%. c #6A605C",
"&. c #7C6357",
"*. c #74625A",
"=. c #7B655B",
"-. c #79665A",
";. c #494C64",
":. c #504F6A",
">. c #4B5463",
",. c #4F5867",
"<. c #4A5668",
"1. c #515761",
"2. c #545A64",
"3. c #5B5D63",
"4. c #535C6B",
"5. c #5A5D6A",
"6. c #5A5D74",
"7. c #625E61",
"8. c #5B626D",
"9. c #54606C",
"0. c #5C6573",
"q. c #5B6677",
"w. c #636264",
"e. c #6C6462",
"r. c #63646B",
"t. c #68666A",
"y. c #6B6A6C",
"u. c #756C66",
"i. c #7B6A61",
"p. c #716B6B",
"a. c #7D746B",
"s. c #616572",
"d. c #636A73",
"f. c #6B6C73",
"g. c #646C7B",
"h. c #66697A",
"j. c #67717F",
"k. c #6B717B",
"l. c #6D7076",
"z. c #72747A",
"x. c #74787F",
"c. c #7A7A7C",
"v. c #7B7676",
"b. c #825849",
"n. c #83655B",
"m. c #816350",
"M. c #946B53",
"N. c #8E6E61",
"B. c #926F62",
"V. c #877369",
"C. c #867A6C",
"Z. c #8B7C72",
"A. c #837371",
"S. c #977E70",
"D. c #A37B60",
"F. c #8C847B",
"G. c #9A877A",
"H. c #AD826F",
"J. c #A38D7C",
"K. c #606E81",
"L. c #667284",
"P. c #6C7484",
"I. c #6E7989",
"U. c #67768A",
"Y. c #727781",
"T. c #757A84",
"R. c #797C83",
"E. c #737D8B",
"W. c #787E8B",
"Q. c #887F85",
"!. c #7D828A",
"~. c #7D8087",
"^. c #7B8492",
"/. c #858283",
"(. c #8D8B8C",
"). c #83868C",
"_. c #948E89",
"`. c #858A92",
"'. c #868C98",
"]. c #908E90",
"[. c #89929D",
"{. c #92959A",
"}. c #96999E",
"|. c #989595",
" X c #A08F8E",
".X c #AA9889",
"XX c #A39B92",
"oX c #AFA594",
"OX c #8A97A7",
"+X c #9B9DA1",
"@X c #949AA5",
"#X c #9DA2AA",
"$X c #99A4B1",
"%X c #A1A3A7",
"&X c #A6A7AB",
"*X c #B8AFA1",
"=X c #A1AAB4",
"-X c #C6A08E",
";X c #C5AE9E",
":X c #C2B39F",
">X c #C3BDBD",
",X c #D3BFB7",
"<X c #D1C3A9",
"1X c #E1C6BB",
"2X c #B9C0C9",
"3X c #C9C7C6",
"4X c #D6CFCC",
"5X c #D5D3D4",
"6X c #E8DCD6",
"7X c #FDFEFE",
"8X c None",
/* pixels */
"8X8X8X8X8X8X8X8X8X8X8X8X8X8X8X8X8X8X8X8X8X8X8X8X8X8X8X8X8X8X8X8X8X8X8X8X8X8X8X8X8X8X8X8X8X",
"8X8X8X8X8X8X8X8X8X8X8X8X8X8X8X8X8X8X8X8X8X8X8X8X8X8X8X8X8X8X8X8X8X8X8X8X8X8X8X8X8X8X8X8X8X",
"8X8X8X8X8X8X8X8X8X8X8X8X8X8X8X8X8X8X8X8X8X8X8X8X8X8X8X8X8X8X8X8X8X8X8X8X8X8X8X8X8X8X8X8X8X",
"8X8X8X8X8X8X8X8X8X8X8X8X8X8X8X8X8X8X8X8X8X&.M.X.8X8X8X8X8X8X8X8X8X8X8X8X8X8X8X8X8X8X8X8X8X",
"8X8X8X8X8X8X8X8X8X8X8X8X8X8X8X8X8X8X8X8X#X6X1X5XT.8X8X8X8X8X8X8X8X8X8X8X8X8X8X8X8X8X8X8X8X",
"8X8X8X8X8X8X8X8X8X8X8X8X8X8X8X8X8X8X8X5. X6X7X,XQ.D 8X8X8X8X8X8X8X8X8X8X8X8X8X8X8X8X8X8X8X",
"8X8X8X8X8X8X8X8X8X8X8X8X8X8X8X8XS.:XX.n.B.-X6XH.N.| C.:X#.8X8X8X8X8X8X8X8X8X8X8X8X8X8X8X8X",
"8X8X8X8X8X8X8X8X8X8X8X8X8X8X8Xe w .XoXQ 2.V.;Xo.>.3.<Xi.w 8X8X8X8X8X8X8X8X8X8X8X8X8X8X8X8X",
"8X8X8X8X8X8X8X8X8Xu =./.U 8X8X8Xl v.XXT 4.w.} 8.>.2.*X/ a 8X8Xy t./.| 9 8X8X8X8X8X8X8X8X8X",
"8X8X8X8X8X8X8X8X| $.s.E 6 v.%X8Xh !./ T W v.w.f.W D f.k.* 8X%X_ 4 4.r.#.' 8X8X8X8X8X8X8X8X",
"8X8X8X8X8X8X8X` *.k.z.;.< m %Xp.X.P.0.y i.m h R &.S L.k.K {.~.2 j 4.R.t.*.8X8X8X8X8X8X8X8X",
"8X8X8X8X8X8X8X..r.w.=.i.j a 6 #.y > b M.[ <.U.m M.[ h * [ } 2 s n S.{ k.O.L 8X8X8X8X8X8X8X",
"8X8X8X8X8X8X8XU 4.O..X*.n l } ~ 4.V = D.y C <.k m. .& ,.,.+.P c J Z.G./ 1.H 8X8X8X8X8X8X8X",
"8X8X8X8X8X8X8X~ Y @.[ u 5 3.^ 0.4.E j Z..Xb f ^ ;X~ c E 0.5.o./ 0 p &.P Q L 8X8X8X8X8X8X8X",
"8X8X8X8X8X8X8X@.B q t P v.8.Q j.I.4.l T 3X>X}.4X+X2 E q.E.0.W k.u.e 9 m G | 8X8X8X8X8X8X8X",
"8X8X8X8X8X8X8Xn.S s 3 XXu.s.;.B B E T B B R h R B Y T Y m B 4.r.G.v.: g { #.8X8X8X8X8X8X8X",
"8X8X8X8X8X8X8Xw H D x.3XQ U.,.;.B B B Z j < < < c E B B E >.q.K.f.5XR G H 3 8X8X8X8X8X8X8X",
"8X8X8X8X8X8X8X- I L z.z.j ; O O O O O O O O O O O O O O O O O a h {./ ^ P 8X8X8X8X8X8X8X8X",
"8X8X8X8X8X8X8X8XI D L.f.>.; . . . . . . . . . . . . . . . . . N 2.P.0.F L 8X8X8X8X8X8X8X8X",
"8X8X8X8X8X8X8X8XF _ ,.[.0.2   . . . . . . . . . . . . . . . . >.l.E./ ^ 6 8X8X8X8X8X8X8X8X",
"8X8X8X8X8X8X8X8XF { 3 ).k.g   . . . . . . . . . . . . . . . . 9.f.z.- O.3 8X8X8X8X8X8X8X8X",
"8X8X8X8X8X8X8X8Xe { E _.4.g   . . . . . . . . . . . . . . . . ,.3.].g } 8X8X8X8X8X8X8X8X8X",
"8X8X8X8X8X8X8X8Xp J f./.T g . . . . . . . . . . . . . . . . . >.D }.D  .8X8X8X8X8X8X8X8X8X",
"8X8X8X8X8X8X8X8X] ' }.R 8.m   . . . . . . . . . . . . . . . . d.m R.c. .8X8X8X8X8X8X8X8X8X",
"8X8X8X8X8X8X8X8Xr v.~.: }.R . . . . . . . . . . . . . . . . . `.r.g {.X.8X8X8X8X8X8X8X8X8X",
"8X8X8X8X8X8X8X% Q g.m g #Xh . . . . . . . . . . . . . . . . . Y.R.a W g.l 8X8X8X8X8X8X8X8X",
"8X8X8X8X2 h ) m / b a T @X& . . . . . . . . . . . . . . . . . >.@X< j P W D ) 2 8X8X8X8X8X",
"8X8X8X; < d.R.6  .u 2.#X4.# . . . . . . . . . . . . . . . . . a Y.+Xh b.i D `.T , 8X8X8X8X",
"8X8X8X1 c Q c.0 [ A.{.h N ; . . . . . . . . . . . . . . . . . c a 3.{.n.u P x.V j 8X8X8X8X",
"8X8X8X> 8.L.l.-.S &X>., C : . . . . . . . . . . . . . . . . . N g s T.|.e V.f.j.Q 8X8X8X8X",
"8X8X8X8Xw.o..X=.t.k.s 7 1.: . . . . . . . . . . . . . . . . . N L 4 B `.L J.Z.7.~ 8X8X8X8X",
"8X8X8X8X8XF.|.c./ Q 4 *.T : . . . . . . . . . . . . . . . . . c I I h Q ( (.|.%.8X8X8X8X8X",
"8X8X8X8X8 *.Y.`.>.D O.u.! 2 . . . . . . . . . . . . . . . . . E D F.S T 8.}.w.X.8X8X8X8X8X",
"8X8X8X8Xq I 3 6 B L _.4 <.j . . . . . . . . . . . . . . . . o <.l ( F.D B 5 5 } * 8X8X8X8X",
"8X8X8Xq...-.K S C a.f., 2.E . . . . . . . . . . . . . . . . O q.l k F.^ E i ' -./ q.8X8X8X",
"8XT 8.3.G z.&X).6 q N a q.9.. . . . . . . . . . . . . . . . % I.W d m e T %X+X3.~ 2.4.8X8X",
"8XE Q y.m 2.!.+XD + m >.W.0.X . . . . . . . . . . . . . . . & ^.0.<.> $ f.{.~.B Q w.>.f 8X",
"8X8Xh 2 E h ~.3.< j g.j '.L.+ . . . . . . . . . . . . . . . 2 OXs.Y s.< l y.z.4 B > n 8X8X",
"8X8X> @ g.D 1.,.m :.6.x P.=XE.0.Q / x.P.k & @ : W ~.f.R 4.q.[.$X:.v h.;.l 8.D 5.E @ > 8X8X",
"8Xs E A E.k.f h T 6.z J H (.%X8.0.2X=X8.T 2.3.1.T Y.2X$X1.R.&Xp.H w v g.2 B f [.1.D C 8X8X",
"8Xa h ..r.^.2 > 4.,.0 r #.J X._ 2.$XB Q 4.2.T.W 0.h g.@Xh u.K ] | r 5 g.T : T `._ ^ g : 8X",
"8Xa m 5 2 g.I.B T E q e.o.L F (.7 Q 4.1.: g l a 2 8.4.m ~ c.H F a.L A T T Q ^.Q > A l 8X8X",
"8X8XB Q h 2 Y.k.m 3 @.o.S _ t.e.S E m 8X8X8X8X8X8X8XE T H f.7.L G e.' 2 Q W.8.2 D 1.8X8X8X",
"8X8X8X8X8X8X8X8X8X8X8Xw.X.L M & 8X8X8X8X8X8X8X8X8X8X8X8X8X< B { %.o.8X8X8X8X8X8X8X8X8X8X8X",
"8X8X8X8X8X8X8X8X8X8X8X8X8X8X8X8X8X8X8X8X8X8X8X8X8X8X8X8X8X8X8X8X8X8X8X8X8X8X8X8X8X8X8X8X8X"
};
