/* XPM */
static const char *e[] = {
/* columns rows colors chars-per-pixel */
"44 44 189 2 ",
"   c #0A0708",
".  c #0E0C0D",
"X  c #100F12",
"o  c #121013",
"O  c #16161C",
"+  c #18191E",
"@  c #1B1D25",
"#  c #1C2027",
"$  c #1F2128",
"%  c #202026",
"&  c #23242C",
"*  c #29292F",
"=  c #242733",
"-  c #252A34",
";  c #2B2D35",
":  c #282E3B",
">  c #232838",
",  c #322F32",
"<  c #2D323E",
"1  c #31343C",
"2  c #3B363A",
"3  c #3D3A3F",
"4  c #373437",
"5  c #433633",
"6  c #443936",
"7  c #443B3B",
"8  c #493E3D",
"9  c #4D413E",
"0  c #5B433B",
"q  c #55433E",
"w  c #63473E",
"e  c #2E3442",
"r  c #323543",
"t  c #363A44",
"y  c #3B3D44",
"u  c #343C4B",
"i  c #393E4A",
"p  c #323748",
"a  c #3F3F57",
"s  c #423E44",
"d  c #4B3F41",
"f  c #443A4B",
"g  c #413E52",
"h  c #3E4047",
"j  c #3D424C",
"k  c #3D4553",
"l  c #444245",
"z  c #4C4444",
"x  c #44454C",
"c  c #4A474C",
"v  c #4D4A4D",
"b  c #45484F",
"n  c #554343",
"m  c #544846",
"M  c #5B4B46",
"N  c #544B4A",
"B  c #5A4E4C",
"V  c #5C514E",
"C  c #424753",
"Z  c #444A54",
"A  c #4B4D53",
"S  c #454C5A",
"D  c #484E5A",
"F  c #40405C",
"G  c #524D50",
"H  c #47505F",
"J  c #4C515C",
"K  c #4F5055",
"L  c #545254",
"P  c #5C5454",
"I  c #51545C",
"U  c #5F5758",
"Y  c #57585D",
"T  c #5B5A5D",
"R  c #644B44",
"E  c #624E48",
"W  c #694F45",
"Q  c #64514B",
"!  c #6B554C",
"~  c #655047",
"^  c #71574D",
"/  c #73584D",
"(  c #625653",
")  c #645956",
"_  c #6C5B54",
"`  c #625D5C",
"'  c #6A5E5B",
"]  c #735C54",
"[  c #6D625C",
"{  c #75635C",
"}  c #7B665E",
"|  c #7C695E",
" . c #4A4E64",
".. c #4D5563",
"X. c #525762",
"o. c #555B65",
"O. c #5B5C63",
"+. c #51526B",
"@. c #545C6A",
"#. c #595E69",
"$. c #5B5E70",
"%. c #635E61",
"&. c #5C616C",
"*. c #5C6472",
"=. c #5F6977",
"-. c #546377",
";. c #646366",
":. c #6E6564",
">. c #63656B",
",. c #69676B",
"<. c #67686D",
"1. c #6C6A6D",
"2. c #756B67",
"3. c #766F6C",
"4. c #7A6F6B",
"5. c #776766",
"6. c #78716C",
"7. c #636771",
"8. c #656973",
"9. c #6B6D73",
"0. c #646C7B",
"q. c #6C6F79",
"w. c #756F74",
"e. c #6E747E",
"r. c #727173",
"t. c #7C7571",
"y. c #73767C",
"u. c #7C7A7C",
"i. c #77777B",
"p. c #85614C",
"a. c #82665A",
"s. c #8B705E",
"d. c #8A6F61",
"f. c #847165",
"g. c #8B766C",
"h. c #8E7568",
"j. c #937869",
"k. c #837A75",
"l. c #8C7E78",
"z. c #9F7F72",
"x. c #917C70",
"c. c #87827D",
"v. c #9D8B7E",
"b. c #92857C",
"n. c #A08B7C",
"m. c #6D7583",
"M. c #717681",
"N. c #757982",
"B. c #7A7D84",
"V. c #777E89",
"C. c #807F81",
"Z. c #7C828B",
"A. c #7E8186",
"S. c #7E8694",
"D. c #7E8895",
"F. c #848385",
"G. c #83868B",
"H. c #898789",
"J. c #908786",
"K. c #938E8C",
"L. c #998E87",
"P. c #9A928D",
"I. c #818792",
"U. c #858A92",
"Y. c #8B8D92",
"T. c #928F91",
"R. c #8B929D",
"E. c #8E9196",
"W. c #939295",
"Q. c #96979A",
"!. c #999799",
"~. c #AC9E8E",
"^. c #A2978A",
"/. c #A79B95",
"(. c #949CA7",
"). c #9EA7B1",
"_. c #A2A1A5",
"`. c #A3A5A9",
"'. c #A9AFB8",
"]. c #BFBBBC",
"[. c #C4AB9F",
"{. c #C0ADA7",
"}. c #D3BBAF",
"|. c #DECFCA",
" X c #E8D5CC",
".X c #E7DAD5",
"XX c #F2EBE6",
"oX c None",
"OX c black",
/* pixels */
"oXoXoXoXoXoXoXoXoXoXoXoXoXoXoXoXoXoXoXoXoXoXoXoXoXoXoXoXoXoXoXoXoXoXoXoXoXoXoXoXoXoXoXoX",
"oXoXoXoXoXoXoXoXoXoXoXoXoXoXoXoXoXoXoXoXoXoXoXoXoXoXoXoXoXoXoXoXoXoXoXoXoXoXoXoXoXoXoXoX",
"oXoXoXoXoXoXoXoXoXoXoXoXoXoXoXoXoXoXoXoXoXoXoXoXoXoXoXoXoXoXoXoXoXoXoXoXoXoXoXoXoXoXoXoX",
"oXoXoXoXoXoXoXoXoXoXoXoXoXoXoXoXoXoXoXoXg.h.d.2.oXoXoXoXoXoXoXoXoXoXoXoXoXoXoXoXoXoXoXoX",
"oXoXoXoXoXoXoXoXoXoXoXoXoXoXoXoXoXoXoXR.]. X|._.q.oXoXoXoXoXoXoXoXoXoXoXoXoXoXoXoXoXoXoX",
"oXoXoXoXoXoXoXoXoXoXoXoXoXoXoXoXoXoXoXw.{.XX.X/.%.oXoXoXoXoXoXoXoXoXoXoXoXoXoXoXoXoXoXoX",
"oXoXoXoXoXoXoXoXoXoXoXoXoXoXoXoXn.^.{ } z.}.[.h.] f.~.h.oXoXoXoXoXoXoXoXoXoXoXoXoXoXoXoX",
"oXoXoXoXoXoXoXoXoXoXoXoXoXoXoX6 ' ~.c.J ;.v.l.I ..^.v.m oXoXoXoXoXoXoXoXoXoXoXoXoXoXoXoX",
"oXoXoXoXoXoXoXoXoXE 2.1.N oXoXoXI F.r.S &.' %.@.J F.u.i oXoXN P y.{ 0 oXoXoXoXoXoXoXoXoX",
"oXoXoXoXoXoXoXoX] :.*.k l C.`.oXO.e.K A %.;.O.O.b O.e.b oX_.1.y J 7.{ ! oXoXoXoXoXoXoXoX",
"oXoXoXoXoXoXoXP :.q.1.D e I F.[ ` *.P ! U C Z _ ! o.&.V t.i.j r O.r.9.{ oXoXoXoXoXoXoXoX",
"oXoXoXoXoXoXoX) >.:.f.' p r m ! s 1 ~ p.G -...Q p.9 < m ! d r s f.| 1.` N oXoXoXoXoXoXoX",
"oXoXoXoXoXoXoXL X.} x.E s A ( o...t M s.G k k ' a.7 k @.O.P Z d { x.` J m oXoXoXoXoXoXoX",
"oXoXoXoXoXoXoXL Z ~ 0 n L O.O.0.@.k A L.L.O.,./.t.j S =.=.O.O.N 0 W N A B oXoXoXoXoXoXoX",
"oXoXoXoXoXoXoX] x 2 6 2.r.@...=.*.S j q._.Y.W.Q.I j ..=.&...*.t.( 2 t v / oXoXoXoXoXoXoX",
"oXoXoXoXoXoXoX! l i ;./.>.=. .k k Z C k i t t i k Z C k C @.=.k.!.A t B E oXoXoXoXoXoXoX",
"oXoXoXoXoXoXoX6 N L G.W.Z ..i p < < e : = & & - e r < r t k ..X.`.9.G m 2 oXoXoXoXoXoXoX",
"oXoXoXoXoXoXoX6 V L e.&.p @ X o o o o o o o o o o o o o X X - j y.7.L N oXoXoXoXoXoXoXoX",
"oXoXoXoXoXoXoXoXN I 0.e.S @ . . . . . . . . . . . . . . . . e @.m.*.L z oXoXoXoXoXoXoXoX",
"oXoXoXoXoXoXoXoXv L X.I.@.&   . . . . . . . . . . . . . . . j 8.M.L P 3 oXoXoXoXoXoXoXoX",
"oXoXoXoXoXoXoXoXz B A F.@.-   . . . . . . . . . . . . . . . j >.u.x V 8 oXoXoXoXoXoXoXoX",
"oXoXoXoXoXoXoXoX0 B 7.u.Z -   . . . . . . . . . . . . . . . i K G.J E oXoXoXoXoXoXoXoXoX",
"oXoXoXoXoXoXoXoXR ( B.;.D ; . . . . . . . . . . . . . . . . x Z N.9.^ oXoXoXoXoXoXoXoXoX",
"oXoXoXoXoXoXoXoXR 4.N.Z e.1   . . . . . . . . . . . . . .   O.&.I A.{ oXoXoXoXoXoXoXoXoX",
"oXoXoXoXoXoXoX* L e.J D U., . . . . . . . . . . . . . . .   O.N.j #.8.Z oXoXoXoXoXoXoXoX",
"oXoXoXoX< y A t I A r o.Z.% . . . . . . . . . . . . . . . . C I.C p I Z x L 1 oXoXoXoXoX",
"oXoXoX= r o.>.l ~ 8 X.Z.@.O . . . . . . . . . . . . . . . . : m.B.x R m x q.C < oXoXoXoX",
"oXoXoX> u &.r.6 ^ 2.B.O.u @ . . . . . . . . . . . . . . . . - k q.y.a.w z y.J r oXoXoXoX",
"oXoXoX< ..=.9.Q ) W.@.e u @ . . . . . . . . . . . . . . . . < p i M.J.M _ 9.*.D oXoXoXoX",
"oXoXoXoX;.1.b.{ >.M.p t C # . . . . . . . . . . . . . . . . < b t D G.U g.k.,.I oXoXoXoX",
"oXoXoXoXoXk.P.3.O.J y P j # . . . . . . . . . . . . . . . . : G N y o.Y c.K.:.oXoXoXoXoX",
"oXoXoXoX5 4.Z.B.J b ( :.k & . . . . . . . . . . . . . . . . r Z 2.N Z o.Y.i.' oXoXoXoXoX",
"oXoXoXoX7 V x A C U t.b S - . . . . . . . . . . . . . . . . u k Y 6.K Z A l Q , oXoXoXoX",
"oXoXoX*.( _ 9 l J 3.>.t ..r . . . . . . . . . . . . . . . X S C i t.` Z 8 q ] A *.oXoXoX",
"oXS &.O.L i.W.9.y v k u *.j . . . . . . . . . . . . . . . O @.X.u Z z Z F.K.,.L o.@.oXoX",
"oXD X.;.C >.Y.U.3 & k @.m.C . . . . . . . . . . . . . . . + *.0...r & Y E.U.J K O...t oX",
"oXoXh i C Z B.O.< i @...S...o . . . . . . . . . . . . . . $ m.m.J X.r h 1.y.h k t l oXoX",
"oXoX; - &.b o...j +.+.F S.R.*.J b I 8.D - @ @ < O.>.A Z ..m.(.0.a $. .i o.K X.S & ; oXoX",
"oXp k x m.&.y h D +.f n %.Q.U.@.Z.'.I...S I K S &.(.).0.8.Q.F.P d g *.i k i V.o.h k oXoX",
"oXe h U 7.m.< 1 @.J 5 0 ^ ( [ Y N.D.J ..X.8.&...J &.R.&.` [ ~ ! 0 2 &.D < k Z.%.L i - oX",
"oXe i 3 i 0.0.k D Z z ' ( m ` 1.x @.X.j e j i e S @.J A 1.( z [ ( l Z Z D m.o.1 l i oXoX",
"oXoXk A y j M.*.i 7 _ U m T ;.` x C C oXoXoXoXoXoXH Z c %.;.L N ` Q 3 Z e.8.t h J oXoXoX",
"oXoXoXoXoXoXoXoXoXoXoX` ( v t * oXoXoXoXoXoXoXoXoXoXoXoXr i B ) ` oXoXoXoXoXoXoXoXoXoXoX",
"oXoXoXoXoXoXoXoXoXoXoXoXoXoXoXoXoXoXoXoXoXoXoXoXoXoXoXoXoXoXoXoXoXoXoXoXoXoXoXoXoXoXoXoX"
};
