/* XPM */
static const char *e[] = {
/* columns rows colors chars-per-pixel */
"50 50 172 2 ",
"   c #0D0B0C",
".  c #0F0F10",
"X  c #100F12",
"o  c #121215",
"O  c #15151A",
"+  c #17181D",
"@  c #1A1A1E",
"#  c #1B1D22",
"$  c #1E2027",
"%  c #212226",
"&  c #22242B",
"*  c #27282C",
"=  c #272A32",
"-  c #2A2D35",
";  c #2B2F39",
":  c #2D313C",
">  c #34353D",
",  c #3A363A",
"<  c #3F3A3D",
"1  c #443D3D",
"2  c #4C3F3B",
"3  c #4D413E",
"4  c #53433C",
"5  c #59463E",
"6  c #5B483F",
"7  c #61493F",
"8  c #323641",
"9  c #353A45",
"0  c #3B3C44",
"q  c #363C4A",
"w  c #3A3E4A",
"e  c #433E41",
"r  c #3D424D",
"t  c #3E4453",
"y  c #444145",
"u  c #4B4443",
"i  c #4F4847",
"p  c #44444B",
"a  c #49464A",
"s  c #4C494C",
"d  c #534641",
"f  c #584740",
"g  c #554944",
"h  c #5D4B42",
"j  c #544C4C",
"k  c #5B4E4A",
"l  c #5C514D",
"z  c #414653",
"x  c #444954",
"c  c #4B4C54",
"v  c #454C5B",
"b  c #4A4E5A",
"n  c #524E51",
"m  c #4F5157",
"M  c #4B515D",
"N  c #545155",
"B  c #5B5453",
"V  c #5D5857",
"C  c #53545C",
"Z  c #59575B",
"A  c #57585F",
"S  c #5C5A5E",
"D  c #624E44",
"F  c #645045",
"G  c #695045",
"H  c #64534C",
"J  c #6A544A",
"K  c #6C584F",
"L  c #71564C",
"P  c #625653",
"I  c #695750",
"U  c #655955",
"Y  c #6C5B53",
"T  c #645C5A",
"R  c #6C5E59",
"E  c #735D53",
"W  c #6D625E",
"Q  c #7D6253",
"!  c #73635D",
"~  c #78675F",
"^  c #7E685D",
"/  c #4D5462",
"(  c #515662",
")  c #545964",
"_  c #5A5C64",
"`  c #555C6B",
"'  c #595E6A",
"]  c #625E60",
"[  c #5F6167",
"{  c #5C616C",
"}  c #5E6571",
"|  c #656264",
" . c #6B6463",
".. c #6F6967",
"X. c #63656C",
"o. c #6A6769",
"O. c #66686E",
"+. c #6B696D",
"@. c #706763",
"#. c #756964",
"$. c #7C6B64",
"%. c #756D6B",
"&. c #786C69",
"*. c #74706F",
"=. c #7B716D",
"-. c #626771",
";. c #636975",
":. c #6A6C73",
">. c #656C79",
",. c #696E78",
"<. c #736F70",
"1. c #6C717C",
"2. c #717276",
"3. c #7B7574",
"4. c #72747B",
"5. c #78777A",
"6. c #76787F",
"7. c #7B7A7D",
"8. c #80685B",
"9. c #806E65",
"0. c #82726B",
"q. c #8B766B",
"w. c #8C786E",
"e. c #857165",
"r. c #817671",
"t. c #827E7F",
"y. c #8C7E77",
"u. c #917E73",
"i. c #8D817B",
"p. c #968073",
"a. c #92837A",
"s. c #99877D",
"d. c #95897F",
"f. c #9E8B7F",
"g. c #6F7581",
"h. c #737780",
"j. c #757A83",
"k. c #7B7E84",
"l. c #7E8086",
"z. c #7D828A",
"x. c #848285",
"c. c #8B8684",
"v. c #84858A",
"b. c #87898E",
"n. c #8C8989",
"m. c #918781",
"M. c #958A82",
"N. c #9E8C81",
"B. c #808691",
"V. c #878D97",
"C. c #8A8D94",
"Z. c #8E929A",
"A. c #909196",
"S. c #9B9695",
"D. c #91949B",
"F. c #9C999A",
"G. c #A79286",
"H. c #A99689",
"J. c #A69991",
"K. c #A29E9D",
"L. c #B2A39D",
"P. c #999CA3",
"I. c #A6A4A5",
"U. c #B5ADAB",
"Y. c #C3B0A7",
"T. c #C7B7AE",
"R. c #CDBFB8",
"E. c #CFBCB4",
"W. c #DFD0CA",
"Q. c #E0D3CE",
"!. c #E5D7D1",
"~. c #EBDFDA",
/* pixels */
"4 4 h D D D D D F F F F F F F D h 4 4 4 4 4 h h 5 6 h F D F D D D F D F F F D F F F F F F F F F F F ",
"4 4 5 h D D D F F F F F F F F D D h h 6 6 h h J L J J D D F F D D F F F D D F F F F F F F F F F F D ",
"4 4 4 h D D D F F F F F F F D D D D D D D h ! s.H.H.y.Y F D F D D D F D D D F F F F F F F F D F D D ",
"4 4 4 5 h D D F F F F F F F D D D h h h h P i.R.!.W.U.&.k h h h h D D F F F F F D D F F D F F F D D ",
"4 4 4 4 h D D D D F F F F F F D D D Y Y h Y i.T.~.Q.L.0.H l Y J D D D F F D D F F F D F D F F F D D ",
"4 4 5 6 h D D F D D D D D D D D 6 I u.N.~ ! $.G.E.Y.p.^ Y q.f.e.D h D D D D D D F F F F F D D F D D ",
"5 6 h D D D D D D h h h D D D D 4 4 #.H.d._ _ =.G.N. .S  .J.M.U 4 5 D D h D h h D D D F F F F F D D ",
"D D D F D D D D h 6 H W  .B k h 4 1 V m.M._ / | $.#._ / X.S.3.s 2 f h k P  .R h 6 D D D F D F F D D ",
"D D D F F D D h D J T o.A s T &.P u A 6.:.m M X. .| { M C 3.:.c i W &.P c {  .I F D D D F F D F D D ",
"F F F F D D D h H ! :.{ x 0 _ v.3.B | 1.) s B A C C A B s } ,.V U t.k.c 9 M -...Y J h D F F D F F F ",
"F F F D D D h l T o.:.o.N 8 r X.%.I N / C J Y N v v l E k C ( l E %.( 9 0 S +.O. .U h h D F F F F F ",
"F D D D D D h l S | %.e.R 0 8 y l l y 8 3 Q J b ` ) j Q J 1 8 i H g 0 9 u $.$.o.| V k h D F F F F F ",
"F D D F F D f j C _ 9.q.I y r j V Z M q , ^ Y c v x n 8.J , t C Z l s r i ! w.#.Z N k h D D D D D F ",
"F F F F F D f j c N Y J 5 u m C _ { ) t r $.a.o.c N 3.M.V w x ` { A C c u h E U c n k h D D D D D D ",
"F F F F F D h H s p 1 2 l | _ ( { >.} v r S F.K.v.C.I.n.x t / ;.>.` ( { T h 2 e a j H 5 6 D D D F D ",
"F F F F F D D K j 0 > j 3.%.X./ / / / v t x -.2.X.O.2.' z z v / / / ) X.r.#.u > p k F 5 4 h D D F D ",
"F F F F F D h D g y s 5.S.+.-.` v t t t t t w 9 > 8 0 w t t t t z M ` ;.7.S.o.0 a g f 5 h D D D F F ",
"D D D F D D h 4 4 i _ v.b./ v r 8 : ; ; ; ; = & $ & & - : : ; : 8 9 t M _ F.7.c j 4 2 h D D D D F F ",
"D D D F F D h 4 g j _ 4.-.r - @ O o o o o o o o o o o o o o o o o o # 8 x 4.:.C k f 4 h D F F F D D ",
"h D F F F F D f j j ) >.>.M ; o                                     O w ) 1.;.C i g h D D D F F F F ",
"h D F D F F D d i j N } j.' > o                                     # v -.1.X.N j 3 h D D D F F F F ",
"D D D F D F D f i j a C k.-.w O                                     # / :.2.N i k 3 h D D F D F F F ",
"D D D F F F D h 4 g s _ 7.{ q O                                     # M X.7.Z u h 3 h D F F F F F F ",
"F F F F F F D h 6 h B :.4.C 8 O                                     # x C k.X.g D 4 D D F F F F F F ",
"F F F D F F D h D D W 4.X.C 9 O                                     # v b 4.,.U G 5 D F D F F F F F ",
"F F F F D D D h 7 J 3.2.m X.p +                                     & ' A _ 4.&.D 5 D F D F D F D D ",
"F F F D D h h 5 f T 2.) c k.C @                                     * :.-.x X.2.B 4 h h D D F F F F ",
"F F D h g u u e c _ / w M z.x O                                     % -.4.x t ) _ y 1 u d h D D F F ",
"F D h u e a c p c n 0 w { j.9 o                                     # ( j.M 9 a n a p m y e f D D F ",
"F D 3 > w _ X.s h h g X.j.{ - .                                     O r 1.h.C h D d N :.M 9 < 4 D F ",
"D D 1 > t ' :.i D Y &.2._ z = o                                     O 8 v -.2.#.L 4 l :./ 9 > 4 D F ",
"D D 2 w / { +.P D =.x.' 9 q = o                                     O 8 9 t :.x.~ h T :.` x e 4 D F ",
"F D 4 j { :.r.~ U 5.1.r 9 t ; o                                     + q w 9 M h.*.H 0.3.-.A g h D F ",
"F D h k T %.m.0.| X.M 0 y x ; o                                     + 9 s y w _ O. .a.i.@.l h D D F ",
"F F F h H 3.n.t.[ m p j U s ; o                                     + 9 j B s x C X.c.c.@.h h D D F ",
"F F D 5 h @.4.h.' x N R | c : O                                     # r c ..T p M -.z.:.U h 6 D D F ",
"D D h 4 f k a c v c  .%.c v 9 O                                     $ x z Z %.T z v c u l d u h D D ",
"h k B N l H u y t Z %._ w M r @                                     & M t r O...c p u g I B N B h D ",
"k C _ A T &.3.X.c s Z x w ) M $                                   X ; ` v w M N a C <.3. .Z ) ) N h ",
"j C _ C C 1.Z.b.C > 0 r v } ) &                                   o 8 ;.` x q > 0 X.Z.C.[ m Z _ C j ",
"i c m c z _ k.l.C - 8 x / g.} =                                   o 0 g.;./ t : > X.z.h.m x b m c i ",
"d e > 0 x c :.{ r 8 v / v j.g.r & # @ @ % % + o X . o @ % # @ # # = / z.;.v / z 8 c X.X.x t 0 > u f ",
"d < - w ` v ( M z t / v t 1.V.k.{ v c _ O.' w = & & : x X.X.C c / ;.B.V.' t v / z z ( v ( M > ; y h ",
"y r 0 C 1.' t r z / v w u T x.A.h.{ j.P.C.;.v x c c x M 1.P.D.,.-.v.A.3.N e p / M w r z >.} z w p u ",
"0 w s S ,.;.w > x ) x 1 5 J R &.o._ h.D.;./ / ( X.{ / / ( j.Z.;.A %.! K D 4 < M ) r 8 z 4.:.N p 0 e ",
"< 0 y a C >.) r x M a 3 H I h k  ._ ( ;./ M x x C m z c v ` } Z S  .h h Y k 1 x M z t { ;.N y p 0 1 ",
"u y a 0 p _ >.) x r a B T B l Z +.Z r v C j u u i u u u N C x s ] X.N j T U k y r M { -.C 0 0 a y u ",
"h g j j i k T ] s y g I P k l Z B g u s g h h h h h h h f j s u j Z B j l U H 4 y N | U g i j j g h ",
"D D h h h D D h f f h H H H k a u 3 4 h D D D D D D D D D D h 4 3 u i k H H F h 4 h h D D h h D D D ",
"D D D D D D D D h h D F H h h f h h D D D D F D F F F F F D D h h f f h D D D D D D D F D D D D D F "
};
