/* XPM */
static const char *p[] = {
/* columns rows colors chars-per-pixel */
"30 30 183 2 ",
"   c #201105",
".  c #251509",
"X  c #28170C",
"o  c #2B1A0E",
"O  c #2D1C12",
"+  c #311E12",
"@  c #342319",
"#  c #3C2A1E",
"$  c #352419",
"%  c #2D1F32",
"&  c #31233B",
"*  c #392938",
"=  c #481C3D",
"-  c #412F23",
";  c #433126",
":  c #44342B",
">  c #49372B",
",  c #47382E",
"<  c #4C392E",
"1  c #4E3B32",
"2  c #463336",
"3  c #513E34",
"4  c #513E3A",
"5  c #3C423D",
"6  c #534135",
"7  c #55433A",
"8  c #59463C",
"9  c #5C493E",
"0  c #2A1E54",
"q  c #301E56",
"w  c #3D1F5D",
"e  c #2E2246",
"r  c #3A2C4E",
"t  c #34284E",
"y  c #2C2258",
"u  c #392C53",
"i  c #3A215C",
"p  c #342559",
"a  c #352563",
"s  c #332867",
"d  c #3B2E65",
"f  c #392666",
"g  c #3E2A7D",
"h  c #4B1E45",
"j  c #4F2740",
"k  c #492F49",
"l  c #53214B",
"z  c #47364A",
"x  c #593E45",
"c  c #503F45",
"v  c #473852",
"b  c #583856",
"n  c #68385D",
"m  c #643857",
"M  c #461E60",
"N  c #531E66",
"B  c #5E1E6B",
"V  c #402F6E",
"C  c #4C2166",
"Z  c #582266",
"A  c #433064",
"S  c #493862",
"D  c #503C6D",
"F  c #6D276B",
"G  c #703C62",
"H  c #6B2173",
"J  c #712377",
"K  c #7D2B7F",
"L  c #76297B",
"P  c #7C3B75",
"I  c #39504D",
"U  c #544244",
"Y  c #5A4445",
"T  c #5F4B41",
"R  c #59454B",
"E  c #58564F",
"W  c #5A4654",
"Q  c #5F4850",
"!  c #574457",
"~  c #515752",
"^  c #634F44",
"/  c #614349",
"(  c #634E4A",
")  c #684C4D",
"_  c #645045",
"`  c #66524A",
"'  c #69544A",
"]  c #69594F",
"[  c #685247",
"{  c #70564C",
"}  c #644E53",
"|  c #6A4A52",
" . c #654C5D",
".. c #634050",
"X. c #70475E",
"o. c #6A5B52",
"O. c #6B5954",
"+. c #725C54",
"@. c #7B5E54",
"#. c #7C5D59",
"$. c #705652",
"%. c #606059",
"&. c #5A4469",
"*. c #60486C",
"=. c #684D6B",
"-. c #724362",
";. c #7C436E",
":. c #674B76",
">. c #7C4070",
",. c #745379",
"<. c #41777B",
"1. c #7D6D65",
"2. c #747871",
"3. c #802F7F",
"4. c #806056",
"5. c #84635A",
"6. c #80476F",
"7. c #875078",
"8. c #835E76",
"9. c #936D6E",
"0. c #82736B",
"q. c #977167",
"w. c #8F657C",
"e. c #8A7B74",
"r. c #9E7B77",
"t. c #A47970",
"y. c #8F837D",
"u. c #4B318C",
"i. c #52378C",
"p. c #4C2F94",
"a. c #50329B",
"s. c #7F2C80",
"d. c #5737A7",
"f. c #5D3BB6",
"g. c #623FBC",
"h. c #664982",
"j. c #694B85",
"k. c #7B5A90",
"l. c #6544A3",
"z. c #6A48AC",
"x. c #6C49A2",
"c. c #744CA5",
"v. c #7953A6",
"b. c #6643B9",
"n. c #734CB4",
"m. c #7A50B7",
"M. c #7652B3",
"N. c #6B47C9",
"B. c #8A2D8D",
"V. c #822E84",
"C. c #8C358D",
"Z. c #8F388D",
"A. c #943E8F",
"S. c #8F3292",
"D. c #923494",
"F. c #97359A",
"G. c #8E408E",
"H. c #914F8F",
"J. c #98488A",
"K. c #8A4D91",
"L. c #964E91",
"P. c #974292",
"I. c #895091",
"U. c #965786",
"Y. c #84648D",
"T. c #997589",
"R. c #8C6195",
"E. c #92719C",
"W. c #8F6CA5",
"Q. c #9878A2",
"!. c #4B8C94",
"~. c #6A908F",
"^. c #63979B",
"/. c #9E918C",
"(. c #AC8D86",
"). c #AB898A",
"_. c #AC928C",
"`. c #B2978E",
"'. c #A78A92",
"]. c #AA9C99",
"[. c #B19B96",
"{. c #B3A09B",
"}. c #B8ABA7",
/* pixels */
"6 9 ^ _ ^ _ ^ [ o._ 8 8 8 T ^ _ _ _ _ _ _ _ _ _ _ _ _ _ _ _ ",
"6 7 ^ ^ ^ ^ ' 2.~.%.^ ^ ^ ^ ^ _ _ _ _ _ _ _ _ _ _ _ _ _ _ ^ ",
"6 6 T ^ _ ^ o.^.!.~ ^ _ _ ^ ( ^ ^ _ _ ^ ^ ^ ^ _ _ _ _ _ _ ^ ",
"7 9 T ^ ^ ^ E <.I , ^ _ ( =.j.=.} ^ _ ' [ [ +.+._ _ _ _ _ ^ ",
"^ ^ ^ ^ ^ ^ 8 5 : 6 ^ } h.v.W.E.k. .' 0.e.1.y.0._ ^ _ _ _ ^ ",
"_ _ _ _ _ _ 8 - 3 ^ } j.M.Q._.(.T.,.` 1././.].0.^ _ _ _ _ ^ ",
"_ _ _ _ _ ^ T 1 9 _ :.n.R.).`.(.r.8.U # 1 ] o.8 9 _ _ _ _ _ ",
"_ _ _ _ ^ _ @.4.{ _ &.x.w._.{.}.[.9.Y X   . o : ^ _ ^ _ ^ _ ",
"_ _ _ _ _ ' q.t.4.[ *.l.k.'.].}.}.T.R O     O 3 T T ^ ^ ^ ^ ",
"_ _ _ _ _ [ #.#.$.:.z.b.b.v.T.).'.Y.W < - # > 6 6 6 9 ^ ^ _ ",
"^ ^ _ _ _ _ 4 * &.z.N.g.g.n.L.J.U.c.h.( ^ ^ ^ 9 8 9 ^ ^ ^ _ ",
"^ ^ _ _ _ _ 3 & V d.f.d.f.m.L.D.G.v.l. .^ _ _ [ ' _ ^ _ _ _ ",
"^ ^ _ _ ^ ^ 6 & p g p.u.a.c.L.D.Z.K.i.S R W $.5.@._ ^ _ _ _ ",
"^ ^ _ _ ^ ^ 6 * r A D ! :.I.P.D.Z.7.b u u v $.@.' ^ _ _ _ _ ",
"_ _ _ _ ^ ^ 6 < Y R ( ( ;.A.F.D.D.;.( U U Y ^ _ _ _ _ _ _ _ ",
"_ _ _ _ ^ ^ 6 < ^ _ _ ^ n s.S.C.C.-.T 8 8 ^ ^ ^ _ _ _ _ _ _ ",
"_ _ _ _ _ ^ 6 < T ^ ^ / j = l b b x 9 T 9 ^ ^ ^ _ _ _ _ _ _ ",
"_ _ _ _ _ ^ 3 > 7 7 ..P V.F h * k m | ^ ^ ^ ^ ^ _ _ _ _ _ _ ",
"_ _ _ _ ^ ^ 1 ; 3 x P D.F.B.Z p C K P | _ ^ ^ ^ _ _ _ _ _ _ ",
"_ _ _ _ _ ^ 3 : / P D.F.B.J M 0 w H s.;.) _ _ ^ _ _ _ _ _ _ ",
"_ _ _ _ _ ^ 6 1 P D.F.B.J N q y a C H 3.-.^ _ _ _ _ _ _ _ _ ",
"_ _ _ _ _ ^ 6 3 X.P L H B i u u s a N J G ^ ^ _ _ _ _ _ _ _ ",
"_ _ _ _ _ ^ 6 < ^ } A f w r U c d s i Z m ^ _ _ _ _ _ _ _ _ ",
"_ _ _ _ _ ^ 6 < ^ ! d y t c T Y z t e k 7 T ^ _ _ _ _ _ _ _ ",
"_ _ _ _ _ ^ 6 < 9 2 % & U ^ T 8 : O @ 1 6 8 ^ _ _ _ _ _ _ _ ",
"_ _ _ _ _ ^ 6 < 8 # . # 9 ^ ^ 9 # . # 8 T ^ ^ _ _ _ _ _ _ _ ",
"_ _ _ _ _ ^ 6 < 8 # X > ^ ^ _ 8 @ . ; ^ _ ^ ^ _ _ _ _ _ _ _ ",
"_ _ _ _ _ ^ 6 > 3 @ o 3 _ _ ^ 3 O . ; T _ _ ^ _ _ _ _ _ _ _ ",
"_ _ _ _ ^ ^ 6 > ; o @ 8 _ _ ^ 3 + X @ < T ^ ^ _ _ _ _ _ _ _ ",
"_ _ _ _ _ _ 9 6 3 < 3 ^ _ _ ^ 9 1 < < 3 T ^ ^ ^ _ _ _ _ _ _ "
};
