/* XPM */
static const char *p[] = {
/* columns rows colors chars-per-pixel */
"45 45 180 2 ",
"   c #1D0F05",
".  c #1E1006",
"X  c #1F1109",
"o  c #1E1211",
"O  c #220F0D",
"+  c #221206",
"@  c #251409",
"#  c #2A1709",
"$  c #2C190A",
"%  c #291507",
"&  c #351D0B",
"*  c #251210",
"=  c #281213",
"-  c #2C1119",
";  c #331F1F",
":  c #39200E",
">  c #332214",
",  c #3B2719",
"<  c #291A24",
"1  c #251A38",
"2  c #382B2B",
"3  c #3C362F",
"4  c #33253F",
"5  c #3C3330",
"6  c #452E1C",
"7  c #47301F",
"8  c #451C37",
"9  c #483222",
"0  c #241D4D",
"q  c #231B46",
"w  c #251E53",
"e  c #2C1F56",
"r  c #271E58",
"t  c #3D1E5E",
"y  c #301E57",
"u  c #3B2A42",
"i  c #272057",
"p  c #2C2257",
"a  c #272158",
"s  c #2B235D",
"d  c #342A58",
"f  c #2E2763",
"g  c #2E2863",
"h  c #312966",
"j  c #372E6E",
"k  c #322560",
"l  c #382777",
"z  c #3A3274",
"x  c #3E357A",
"c  c #4B1A41",
"v  c #421E5F",
"b  c #5C2252",
"n  c #4C3858",
"m  c #593953",
"M  c #602458",
"N  c #481E62",
"B  c #541E67",
"V  c #581D66",
"C  c #6A1E6E",
"Z  c #651E6E",
"A  c #6D1E72",
"S  c #701E73",
"D  c #4B3D66",
"F  c #6E316F",
"G  c #622777",
"H  c #722176",
"J  c #742178",
"K  c #384842",
"L  c #355F60",
"P  c #35696D",
"I  c #4E4046",
"U  c #675950",
"Y  c #664F53",
"T  c #755B75",
"R  c #843475",
"E  c #915349",
"W  c #855F51",
"Q  c #9F6051",
"!  c #8A6455",
"~  c #A46A5E",
"^  c #844A7E",
"/  c #9D567A",
"(  c #9C706B",
")  c #946571",
"_  c #9D6C77",
"`  c #986B7B",
"'  c #887C73",
"]  c #AC7C6E",
"[  c #A1766B",
"{  c #A36479",
"}  c #A77C72",
"|  c #AE7F72",
" . c #AF7171",
".. c #B07670",
"X. c #A66D63",
"o. c #AF8072",
"O. c #A5877A",
"+. c #B98D7F",
"@. c #B18479",
"#. c #BA967F",
"$. c #3E2687",
"%. c #40268B",
"&. c #44308D",
"*. c #462798",
"=. c #47289A",
"-. c #4A2B9D",
";. c #543597",
":. c #7E2881",
">. c #4C2DA2",
",. c #5736AB",
"<. c #5C39B6",
"1. c #5B39B7",
"2. c #613EA5",
"3. c #613EBD",
"4. c #7E5B97",
"5. c #7B589A",
"6. c #68459C",
"7. c #6D4AA1",
"8. c #6642B4",
"9. c #7E58BC",
"0. c #6744C4",
"q. c #6844C5",
"w. c #6B46CB",
"e. c #6E49CD",
"r. c #734EC5",
"t. c #7B55C2",
"y. c #7E59C1",
"u. c #7651C5",
"i. c #8A2D8E",
"p. c #85298B",
"a. c #873188",
"s. c #933B8A",
"d. c #8D2F91",
"f. c #902E97",
"g. c #8D3694",
"h. c #923297",
"j. c #943299",
"k. c #99369E",
"l. c #953995",
"z. c #9B36A1",
"x. c #9E458E",
"c. c #996C93",
"v. c #A96581",
"b. c #A36D8C",
"n. c #A47C89",
"m. c #AE778E",
"M. c #8E65AC",
"N. c #8D68B1",
"B. c #35818C",
"V. c #358894",
"C. c #60AEB5",
"Z. c #41B1C4",
"A. c #31C9E6",
"S. c #42C4DD",
"D. c #908987",
"F. c #A88689",
"G. c #B68D80",
"H. c #AC9187",
"J. c #B4988B",
"K. c #AC8E99",
"L. c #B08D99",
"P. c #AB9C9A",
"I. c #B49996",
"U. c #BAA28A",
"Y. c #AFA293",
"T. c #B6A393",
"R. c #ABA5A4",
"E. c #B7ADAB",
"W. c #B7A8A3",
"Q. c #B9B2AF",
"!. c #BBB7B6",
"~. c #C3BEBD",
"^. c #C4B8B1",
"/. c #CCC1BE",
"(. c #8EE5EC",
"). c #93F5FE",
"_. c #C7C3C3",
"`. c #DAD9D9",
"'. c #E5E5E6",
"]. c None",
/* pixels */
"].].].].].].].].].].].].].].].].].].].].].].].].].].].].].].].].].].].].].].].].].].].].].",
"].].].].].].].].].].].].).].].].].].].].].].].].].].].].].].].].].].].].].].].].].].].].].",
"].].].].].].].].].].].(.Z.A.].].].].].].].].].].].].].].].].].].].].].].].].].].].].].].].",
"].].].].].].].].].].C.S.P K ].].].].].].].].].].].].].].].].].].].].].].].].].].].].].].].",
"].].].].].].].].].].B.B.K & ].].].].].].].].].].].].].].].].].].].].].].].].].].].].].].].",
"].].].].].].].].].].L V.> # ].].].].].].e.r.9.r.w.].].].].].].].].].`.].].].].].].].].].].",
"].].].].].].].].].].$ > + ].].].].].e.e.u.K.U.L.N.e.].].].R.`.].].].!.].].].].].].].].].].",
"].].].].].].].].].].# # ].].].].].e.e.u.K.J.H.H.#.9.].].].D.~.'.]._.~.Q.].].].].].].].].].",
"].].].].].].].].].].& & ].].].].e.e.u.L.T.I.O.O.O.n.y.].6 7 U ' Q.R.W.U ].].].].].].].].].",
"].].].].].].].].].].& @ ].].].].w.u._ ( H.W.G.G.} E m.].& $ % & 9 9 , + ].].].].].].].].].",
"].].].].].].].].].].! W ].].].].1.y.Q ) E.I.J./.~._ X.5.& .   . + # @   ].].].].].].].].].",
"].].].].].].].].].+.o.] ].].].].>.8.) O.!.P.E._.!.L.~ 4.& +     . + . ].].].].].].].].].].",
"].].].].].].].].].+.| ] ].].].].w.<.2.F.U.P.P.R.~.^.n.7.& +   .       ].].].].].].].].].].",
"].].].].].].].].].@.[ } ].].].e.e.e.1.,.6.F.U.Y.Y.J.4.].].+   . . . ].].].].].].].].].].].",
"].].].].].].].].].n 2 D ].].e.e.e.q.<.w.8.^ / m...` >.].].].].].].].].].].].].].].].].].].",
"].].].].].].].].].].o d ].e.e.e.w.,.3.e.y.{ f.j.R c.1.q.].].].].].].].].].].].].].].].].].",
"].].].].].].].].].].* 0 x 0.w.e.3.-.q.e.y.{ j.j.a.b.r.q.e.].].].].].].].].].].].].].].].].",
"].].].].].].].].].].< 0 h &.>.<.>.*.,.q.y.v.j.j.p./ M.3.,.].].].].].].].].].].].].].].].].",
"].].].].].].].].].].< 0 a j $.=.=.*.*.>.9.v.j.j.i.s.c.=.l z ].].].T o.] o.].].].].].].].].",
"].].].].].].].].].].$ q w w l =.].].;.;.c.x.k.j.i.s.` l w s f f s Y ] | ].].].].].].].].].",
"].].].].].].].].].].# ].].r %.].].]./ _ { j.k.h.i.l. .].].w w w ].].].].].].].].].].].].].",
"].].].].].].].].].].$ ].].].].].].].j.s.s.k.k.i.h.k.].].].].].].].].].].].].].].].].].].].",
"].].].].].].].].].].$ ].].].].].].].z.z.k.k.k.i.j.k.].].].].].].].].].].].].].].].].].].].",
"].].].].].].].].].].$ ].].].].].].].8 M a.h.z.i.g.k.].].].].].].].].].].].].].].].].].].].",
"].].].].].].].].].].@ ].].].].].].].* @ = 8 b m I m ].].].].].].].].].].].].].].].].].].].",
"].].].].].].].].].].# ].].].].].].j.:.H c = O 2 3 5 - ].].].].].].].].].].].].].].].].].].",
"].].].].].].].].].].@ ].].].].].k.k.k.k.h.C V d n F i.].].].].].].].].].].].].].].].].].].",
"].].].].].].].].].].  ].].].].k.k.k.k.k.i.H N w N J d.k.].].].].].].].].].].].].].].].].].",
"].].].].].].].].].].. ].].].].k.k.k.k.i.H Z e w y C H i.k.].].].].].].].].].].].].].].].].",
"].].].].].].].].].].+ ].].k.k.k.k.k.i.H A t w w p B A H i.k.].].].].].].].].].].].].].].].",
"].].].].].].].].].].. ].k.k.k.k.k.i.H A B w w i z k B A J j.k.].].].].].].].].].].].].].].",
"].].].].].].].].].].# ].k.k.k.k.d.H A Z e w w i z j e V S :.h.].].].].].].].].].].].].].].",
"].].].].].].].].].].& ].].].g.G G A A t w ].].w j z a t A A H ].].].].].].].].].].].].].].",
"].].].].].].].].].].@ ].].].].g p t B w w ].].].s x h e B A A ].].].].].].].].].].].].].].",
"].].].].].].].].].].. ].].].x x z w w w ].].].].w j x f w v ].].].].].].].].].].].].].].].",
"].].].].].].].].].].# ].].].x x f w w ].].].].].].p u 1 0 ].].].].].].].].].].].].].].].].",
"].].].].].].].].].].$ ].].].u 4 1 0 ].].].].].].].; $ X ].].].].].].].].].].].].].].].].].",
"].].].].].].].].].].$ ].].: & @   o ].].].].].].].& +   ].].].].].].].].].].].].].].].].].",
"].].].].].].].].].].# ].].: & @   ].].].].].].].: #   . ].].].].].].].].].].].].].].].].].",
"].].].].].].].].].].+ ].].: & +   ].].].].].].].: $   . ].].].].].].].].].].].].].].].].].",
"].].].].].].].].].].+ ].].: $     ].].].].].].].& @   . ].].].].].].].].].].].].].].].].].",
"].].].].].].].].].].  ].].& @   . ].].].].].].].& +   . ].].].].].].].].].].].].].].].].].",
"].].].].].].].].].].  ].].$ .   ].].].].].].].& & +   . . ].].].].].].].].].].].].].].].].",
"].].].].].].].].].].  ].@ .   . ].].].].].].].].@ .   . . . ].].].].].].].].].].].].].].].",
"].].].].].].].].].].].].].].].].].].].].].].].].].].].].].].].].].].].].].].].].].].].].]."
};
