/* XPM */
static const char *p[] = {
/* columns rows colors chars-per-pixel */
"50 50 216 2 ",
"   c #1E0F04",
".  c #1F1005",
"X  c #221206",
"o  c #241409",
"O  c #29160B",
"+  c #2C190D",
"@  c #301C0F",
"#  c #2C1B12",
"$  c #261511",
"%  c #332115",
"&  c #34231B",
"*  c #39271C",
"=  c #3C291D",
"-  c #392415",
";  c #371626",
":  c #2B1E38",
">  c #3F1A35",
",  c #3C2C22",
"<  c #3B2828",
"1  c #3B3632",
"2  c #312339",
"3  c #422C1F",
"4  c #412E23",
"5  c #43242C",
"6  c #443226",
"7  c #463429",
"8  c #49352A",
"9  c #4C392D",
"0  c #4E3C32",
"q  c #483636",
"w  c #513E33",
"e  c #513B3A",
"r  c #37433E",
"t  c #544136",
"y  c #54423A",
"u  c #59463C",
"i  c #5C493E",
"p  c #2A1E53",
"a  c #271E51",
"s  c #3B1E5C",
"d  c #331E59",
"f  c #2D2246",
"g  c #33274C",
"h  c #392845",
"j  c #3D304D",
"k  c #2D235B",
"l  c #2E2354",
"z  c #322454",
"x  c #362A53",
"c  c #362A5A",
"v  c #3D3051",
"b  c #322562",
"n  c #352B6A",
"m  c #372B66",
"M  c #3A2D75",
"N  c #4F1D4E",
"B  c #52224A",
"V  c #43354C",
"C  c #4D3D4A",
"Z  c #463844",
"A  c #573B48",
"S  c #483954",
"D  c #553852",
"F  c #4F2B53",
"G  c #653E53",
"H  c #4B1E63",
"J  c #441E60",
"K  c #5B1E69",
"L  c #501E65",
"P  c #631E6C",
"I  c #6C1E72",
"U  c #701F74",
"Y  c #582567",
"T  c #513F63",
"R  c #493478",
"E  c #4E3A73",
"W  c #672866",
"Q  c #6A3D62",
"!  c #753A6B",
"~  c #722076",
"^  c #77257A",
"/  c #7B3875",
"(  c #702671",
")  c #375C5C",
"_  c #3A7377",
"`  c #544143",
"'  c #5A4643",
"]  c #5E4B41",
"[  c #59474C",
"{  c #5A465C",
"}  c #594655",
"|  c #475551",
" . c #634F44",
".. c #634E4A",
"X. c #65464E",
"o. c #645045",
"O. c #655249",
"+. c #6B554A",
"@. c #6D594F",
"#. c #6A5347",
"$. c #654351",
"%. c #634E51",
"&. c #6D4956",
"*. c #69495A",
"=. c #71455E",
"-. c #734E5F",
";. c #6D5A51",
":. c #755B52",
">. c #7A5C52",
",. c #70574C",
"<. c #5D655F",
"1. c #74635A",
"2. c #6B665C",
"3. c #5E476A",
"4. c #654C64",
"5. c #654B6B",
"6. c #764267",
"7. c #674C74",
"8. c #664A7B",
"9. c #7E4073",
"0. c #6C5076",
"q. c #526C6B",
"w. c #786C64",
"e. c #7B7168",
"r. c #65706D",
"t. c #833B7D",
"y. c #815F5C",
"u. c #85645A",
"i. c #8B685D",
"p. c #835868",
"a. c #95587F",
"s. c #8F547A",
"d. c #8D6961",
"f. c #966C67",
"g. c #997268",
"h. c #956774",
"j. c #897C76",
"k. c #9D777A",
"l. c #8D6478",
"z. c #A47A6F",
"x. c #A87C75",
"c. c #8F827B",
"v. c #90827C",
"b. c #A7867A",
"n. c #3F2980",
"m. c #4B3187",
"M. c #4A2C99",
"N. c #52339D",
"B. c #513689",
"V. c #7D2681",
"C. c #7E2C80",
"Z. c #5635AA",
"A. c #5D3BB7",
"S. c #4F2FA0",
"D. c #613FAC",
"F. c #613EB7",
"G. c #5E409E",
"H. c #6A4C84",
"J. c #7A5787",
"K. c #654694",
"L. c #775397",
"P. c #6A48A8",
"I. c #754FAB",
"U. c #6845B8",
"Y. c #714DB6",
"T. c #7A53B4",
"R. c #6945C6",
"E. c #6C47CA",
"W. c #6844C4",
"Q. c #724DC1",
"!. c #7651C1",
"~. c #822985",
"^. c #882F8A",
"/. c #873A82",
"(. c #8B338C",
"). c #8D3A8A",
"_. c #873783",
"`. c #8D2F90",
"'. c #8E3093",
"]. c #913295",
"[. c #96349A",
"{. c #98359C",
"}. c #973896",
"|. c #953D8F",
" X c #954389",
".X c #98498A",
"XX c #8A5899",
"oX c #955B96",
"OX c #904F88",
"+X c #987589",
"@X c #8E6993",
"#X c #A67285",
"$X c #825AA8",
"%X c #8763B2",
"&X c #9371A3",
"*X c #3F8891",
"=X c #6C9D9E",
"-X c #7AA19F",
";X c #4D9DA9",
":X c #57A4AE",
">X c #6AB9C2",
",X c #958983",
"<X c #948781",
"1X c #9D938D",
"2X c #AC8C86",
"3X c #B1958D",
"4X c #A68796",
"5X c #A99B97",
"6X c #B49C94",
"7X c #B39A96",
"8X c #AF9287",
"9X c #B5A29D",
"0X c #AEA3A0",
"qX c #B6AAA8",
"wX c #BCB2B0",
"eX c #C3BAB9",
/* pixels */
"t y ]  . .o.o. .o. . .o.o.o.O. .] y y y y y i  .o.o.o.o.o.o.o.o.o.o.o.o.o.o.o.o.o.o.o.o.o.o.o.o.o.o.",
"t y u ]  . . . .o. .o.o.#.2.2.O. .i i i i ]  . . .o.o.o.o.o.o.o.o.o.o.o.o.o.o.o.o.o.o.o.o.o.o.o.o. .",
"t t y ]  . . . .o. .o.+.e.-X=X<.o. . . . . . . . .o.o.o.o.o.o.o.o.o.o.o.o.o.o.o.o.o.o.o.o.o. .o. . .",
"t t t i  . . . .o. .o.w.-X>X;Xq.o. .o.o. .o. . . .o.o.o.o.o. .o.o. .o.o. . . . . .o.o.o. .o.o.o. . .",
"t t t y ]  . .o.o. .o.r.:X;X_ | i  . .o.o. .o.o... . . . .o.o.o. . .o. . .o.o.o.o.o. .o. .o.o.o. . .",
"t y u i ]  . . .o.o.] q.*X_ r , w  . .o.o.....5.7.4...o. .o.o.o.o.o.o. .o.#.@.#.o.o. .o.o. . .o. . .",
"u i ]  . . . . .o.o.i | _ ) , 4 y  .o. ...4.H.P.I.L.H.4.%.o. .O.1.:.+.@.;.e.c.1.o. .o.o.o.o.o.o. . .",
"]  . .o. . . . .o. .i e r 1 4 t ]  .o.%.7.K.Y.%X&X&X&XL.5.%. .;.j.,Xe.1.w.,X,X1.o.o. .o.o.o.o.o. . .",
" . . .o.o. . .o.o.o.] 9 % = 0 ]  . .%.8.P.Q.%X4X3X3X4X&XJ.4.O.1.,XqX5Xv.<X5X1X1. . . .o.o.o.o.o. . .",
"o.o.o. .o.o.o.o.o. . .w 4 8 i  .o.%.7.P.Q.%X4X3X8X2Xb.+XXX0...o.1.v.5X5X0XqX1X1.i  .o.o.o.o.o.o.o.o.",
"o.o.o.o.o. .o.o. . . .t 6 w  .o.O.7.P.Q.$X+X2X6X8Xb.b.g.l.J.[ 6 = 9 o.e.j.j.1.y t  .o.o.o.o.o.o.o.o.",
"o.o.o.o.o. .o. . .o.o.i t u  .o...8.U.T.OXg.2X6X6X3X6Xb.d.l.*., O o + - 3 = * 7 i  .o.o.o.o.o.o.o.o.",
"o.o.o.o.o.o. . . .o.:.u.u.>.#.o...3.G.I.l.g.5X9X6XqXeX9Xk.d.-., o .   X o O % 0  . .o. . .o.o. . .o.",
"o.o.o.o.o.o.o.o. .#.i.z.z.f.:.o. .} B.P.J.k.7X0X0XwXeXqX2Xf.4., X       X o * y  . . . . . . . . . .",
"o.o.o.o.o. .o.o. .+.g.x.x.g.:.O.%.5.K.D.P.@X4X5X5X0XqXwX7X+X4.4 + X X   X # 9 i ] ] ] ] ]  . . .o. .",
"o.o.o.o.o. .o. .o.+.d.g.f.u.+.%.H.P.U.W.A.P.L.+X2X3X6X9X4XJ.{ 0 6 , % # % 6 w y y y y y u ]  . .o. .",
"o.o.o.o.o. .o.o. .o...` ` %.%.8.Y.E.E.W.A.U.U.L.a.#X#Xx.@XK.5...i u t w t y y t t t y i ] ]  . .o.o.",
" . . .o.o.o. .o.o. .' < 2 S 3.P.E.E.R.A.A.R.Q.XX.X|. Xa.XXD.K.5.o. . . . . .] u u u i  . . . . .o.o.",
" . . .o.o.o.o.o.o. .i , : c E U.R.R.F.Z.A.R.!.oX.X].(. XXXU.U.H.%. . . . . . . . . . . . .o.o.o. . .",
"]  .o. .o.o.o. .o. .i 7 : k R N.Z.A.Z.M.Z.W.!.oX.X[.'.).XXT.U.K.*. . .o. . . .#.,.#.o. . . .o.o.o.o.",
"]  .o. .o.o.o. . . .i q : p n M M.S.M.M.M.Z.Y.oX.X].`.(..XXXZ.m.T [ ..[ %.,.>.i.u.@.o.o. .o.o.o.o.o.",
" . . .o.o.o. . . . .i 7 : l k b n.m.R E m.N.I.oX.X[.'.(..XOXR n c S S S { y.f.f.u.+.o.o. .o.o.o.o.o.",
" . . .o.o.o. . .o. .i 7 < h x c R E { } 5.H.oX.X}.[.'.(.OXp.{ v z k c c C :.u.>.+.o. . . . .o.o.o.o.",
"o.o.o.o.o.o. . .o. .i 7 7 ` ` C { }  . .-.s..X X[.[.`.'. Xp.O.` V j V C '  .o.o.o.o. .o.o.o.o.o.o.o.",
"o.o.o.o.o.o. . .o. .i 7 8 ]  . . . .o...6.).].[.{.].`.].).=... .' ' ] ]  . . .o. . .o.o.o.o.o.o.o.o.",
"o.o.o.o.o.o. . .o. .i 7 7 i  .o. .o. ...Q _.].[.{.].`.]./.&.] ] i i i ]  . . . .o.o. .o.o.o.o.o.o.o.",
"o.o.o.o.o.o. . .o. .i 7 7 i  .o. .o. .] A B W C.(.(._._./ $.i u y y y i  . . .o.o.o. .o.o.o.o.o.o.o.",
"o.o.o.o.o. .o.o.o. .i 6 7 i  . . . . .' 5 ; ; > B F D D A y i ] ] i i i  . . .o. . .o.o.o.o.o.o.o.o.",
"o.o.o.o.o.o.o.o.o. .i 6 8 i i i u ' $.! ( W B ; ; < 1 1 q e  . . . . . . . . .o.o.o.o.o.o.o.o.o.o.o.",
"o.o.o.o.o.o. . .o. .u 6 6 y y t y G / (.].].~.W N h j F W ! 6...o.o.o.o. . . .o.o.o.o.o.o.o.o.o.o.o.",
"o.o.o.o.o.o. . .o. .u , , w t t A ! (.{.{.[.'.V.K s z Y ^ ^.t.=...o. . .o. . .o.o.o.o.o.o.o.o.o.o.o.",
"o.o.o.o.o.o.o. .o.o.u , , 0 t A Q ).[.{.{.].~.U H p p H I V.(.9.&. .o. .o.o.o.o.o.o.o.o.o.o.o.o.o.o.",
"o.o.o.o.o.o.o. .o. .i 4 4 y X.! /.[.{.[.].~.~ K s p p s K U V._.9.&. .o.o.o. .o.o.o.o.o.o.o.o.o.o.o.",
"o.o.o.o.o.o.o.o.o. .i 6 7 X.9.).[.{.[.].~.~ P J p a k b H P U V./.9... .o.o. .o.o.o.o.o.o.o.o.o.o.o.",
"o.o.o.o.o.o.o.o. . .i 6 8 =.).[.{.{.].~.~ I L d a a b n m H P ~ ~.t.&. . . .o.o.o.o.o.o.o.o.o.o.o.o.",
"o.o.o.o.o.o.o.o. . .i 8 9 *.9./.).^.C.~ I K s z x l b M b d H I ^ / =. . . .o.o.o.o.o.o.o.o.o.o.o.o.",
"o.o.o.o.o. .o.o.o. .i 8 9  ...&.Q Y Y K K J p j C V c n n k s K I ( G  . . .o.o.o.o.o.o.o.o.o.o.o.o.",
"o.o.o.o.o.o.o. . . .i 6 7 ]  . .} m b s s d g C ] ' V m M b k J Y W $. . .o.o.o.o.o.o.o.o.o.o.o.o.o.",
"o.o.o.o.o.o.o.o. . .i 7 7 ]  .[ T R n k p g V '  .] C c m n k z F A ' ]  . .o.o.o.o.o.o.o.o.o.o.o.o.",
"o.o.o.o.o.o.o.o.o. .i 7 8 ]  .[ T n k p g Z ' ] i u ` V g f : f Z e y '  . . .o.o.o.o.o.o.o.o.o.o.o.",
"o.o.o.o.o.o.o. .o. .i 7 8 ] ] e h f : f C ]  .] u u t q & # # , 0 t t y ]  . .o.o.o.o.o.o.o.o.o.o.o.",
"o.o.o.o.o.o.o.o.o. .i 7 8  .u 6 & $ O < '  . . . .] y 6 + X + 7 t y y u  . . .o.o.o.o.o.o.o.o.o.o.o.",
"o.o.o.o.o.o.o.o.o. .i 6 8 ] u 6 @ X o 4 u  . . . . .t = O X # 0 i ] i ]  . . .o.o.o.o.o.o.o.o.o.o.o.",
"o.o.o.o.o.o.o.o.o. .i 6 7 ] u 6 @ X # 9 ] o. .o. . .w - o . % t  . . . . . . .o.o.o.o.o.o.o.o.o.o.o.",
"o.o.o.o.o.o.o.o.o. .i 6 7 i u 4 + o * y  .o. .o.o.] 9 % o X * u  .o. .o. . .o.o.o.o.o.o.o.o.o.o.o.o.",
"o.o.o.o.o.o.o.o.o. .i 6 6 i t = o o 4 i o.o. .o. .i 6 @ X o 4 i o.o. .o.o. .o.o.o.o.o.o.o.o.o.o.o.o.",
"o.o.o.o.o.o. .o.o. .i 6 6 u 9 % X o 6 i o. .o.o. .y 3 + . X & 0 i  .o. .o. . . .o. . . .o. . .o. . .",
"o.o.o.o.o. .o. . . .i 6 6 0 = O X # 9 ] o.o.o.o. .u 3 + X X O & 7 u  . . . .o.o. .o.o.o. .o.o. .o.o.",
"o.o.o.o.o. .o. .o. .] 0 0 0 , * * 6 u  .o.o.o. . .i 9 = * , * , 6 y  . . . .o.o.o.o. .o.o. .o.o.o. .",
"o.o.o.o.o. .o.o.o.o. .i i i i u u i  . .o.o.o. . . .i u u u u u i ]  . .o. . . .o.o. .o.o.o. . .o.o."
};
