/* XPM */
static const char *p[] = {
/* columns rows colors chars-per-pixel */
"44 44 186 2 ",
"   c #1D0F05",
".  c #1E1006",
"X  c #1F1318",
"o  c #231206",
"O  c #241408",
"+  c #291609",
"@  c #2D190A",
"#  c #2C1707",
"$  c #331C0B",
"%  c #381F0D",
"&  c #2C1B11",
"*  c #251511",
"=  c #321B1B",
"-  c #3A200E",
";  c #392314",
":  c #392218",
">  c #3F2811",
",  c #231621",
"<  c #281A29",
"1  c #331520",
"2  c #34222A",
"3  c #382530",
"4  c #36372D",
"5  c #422A1A",
"6  c #441A35",
"7  c #443838",
"8  c #38463F",
"9  c #514033",
"0  c #241C4B",
"q  c #251C46",
"w  c #251E53",
"e  c #2C1E56",
"r  c #251D5D",
"t  c #381E5B",
"y  c #371E5B",
"u  c #302447",
"i  c #3C2947",
"p  c #2C2457",
"a  c #2B225C",
"s  c #39255A",
"d  c #3D3245",
"f  c #2E2562",
"g  c #2F2068",
"h  c #3C2362",
"j  c #312864",
"k  c #332B6A",
"l  c #352665",
"z  c #322273",
"x  c #393173",
"c  c #3D3579",
"v  c #421E5F",
"b  c #4B1944",
"n  c #4E3341",
"m  c #50364D",
"M  c #5E2557",
"N  c #482C43",
"B  c #63215F",
"V  c #461E61",
"C  c #4C1E64",
"Z  c #531E67",
"A  c #5F1E6C",
"S  c #571E68",
"D  c #611E6D",
"F  c #681E6F",
"G  c #6A1E71",
"H  c #701E73",
"J  c #413662",
"K  c #6F257A",
"L  c #722373",
"P  c #752279",
"I  c #762776",
"U  c #753574",
"Y  c #67306C",
"T  c #365C5C",
"R  c #345F61",
"E  c #356B70",
"W  c #544253",
"Q  c #6B5C52",
"!  c #724F75",
"~  c #644E65",
"^  c #7B706A",
"/  c #84625D",
"(  c #95675B",
")  c #97517D",
"_  c #8C696C",
"`  c #9D6B67",
"'  c #9D736A",
"]  c #9A6B79",
"[  c #A36B6C",
"{  c #AD7D6F",
"}  c #A4607F",
"|  c #AE7F71",
" . c #A37D79",
".. c #AB847C",
"X. c #A78679",
"o. c #B78A7C",
"O. c #B3937F",
"+. c #3F2788",
"@. c #412D87",
"#. c #433386",
"$. c #47289A",
"%. c #492B9C",
"&. c #462799",
"*. c #772981",
"=. c #4E30A1",
"-. c #5130A7",
";. c #5735AC",
":. c #5C3AB6",
">. c #5937B5",
",. c #603DBA",
"<. c #764B9D",
"1. c #704B90",
"2. c #5940A9",
"3. c #6B48A9",
"4. c #7752A6",
"5. c #6644BB",
"6. c #7F5ABD",
"7. c #633FC0",
"8. c #6541C2",
"9. c #6944C7",
"0. c #6E49CD",
"q. c #6D48C6",
"w. c #744FC7",
"e. c #7550C6",
"r. c #7550CB",
"t. c #862C8A",
"y. c #892D8C",
"u. c #832A86",
"i. c #8C328C",
"p. c #913B84",
"a. c #8D2E92",
"s. c #922D9B",
"d. c #8F3094",
"f. c #873390",
"g. c #913296",
"h. c #96339B",
"j. c #99369E",
"k. c #973896",
"l. c #9B36A0",
"z. c #9C448E",
"x. c #9B4C85",
"c. c #9B5788",
"v. c #855B98",
"b. c #985F93",
"n. c #885D86",
"m. c #A14D8A",
"M. c #A35188",
"N. c #8E6288",
"B. c #9A7B8F",
"V. c #91649F",
"C. c #99609A",
"Z. c #906D97",
"A. c #8B5EA4",
"S. c #815DB9",
"D. c #9264A2",
"F. c #9574AC",
"G. c #A27EA0",
"H. c #36808B",
"J. c #3FA8BA",
"K. c #55AFBB",
"L. c #3DB0C4",
"P. c #31BDD6",
"I. c #75D4DF",
"U. c #9B8E87",
"Y. c #9B928E",
"T. c #A88988",
"R. c #AF9288",
"E. c #B1948B",
"W. c #B4988F",
"Q. c #B99487",
"!. c #A98F94",
"~. c #A99A99",
"^. c #B49C93",
"/. c #B39792",
"(. c #ADA199",
"). c #B3A099",
"_. c #AEA1A0",
"`. c #B4A9A5",
"'. c #B7ACAB",
"]. c #BDB8B7",
"[. c #C1B4AC",
"{. c #C3BDBD",
"}. c #89EEF9",
"|. c #C9C6C5",
" X c #D5D4D4",
".X c None",
/* pixels */
".X.X.X.X.X.X.X.X.X.X.X.X.X.X.X.X.X.X.X.X.X.X.X.X.X.X.X.X.X.X.X.X.X.X.X.X.X.X.X.X.X.X.X.X",
".X.X.X.X.X.X.X.X.X.X.X.X}..X.X.X.X.X.X.X.X.X.X.X.X.X.X.X.X.X.X.X.X.X.X.X.X.X.X.X.X.X.X.X",
".X.X.X.X.X.X.X.X.X.X.XI.L.P..X.X.X.X.X.X.X.X.X.X.X.X.X.X.X.X.X.X.X.X.X.X.X.X.X.X.X.X.X.X",
".X.X.X.X.X.X.X.X.X.XK.J.T 8 .X.X.X.X.X.X.X.X.X.X.X.X.X.X.X.X.X.X.X.X.X.X.X.X.X.X.X.X.X.X",
".X.X.X.X.X.X.X.X.X.XH.E 4 $ .X.X.X.X.X.X.X.X.X.X.X.X.X.X.X.X.X.X.X.X.X.X.X.X.X.X.X.X.X.X",
".X.X.X.X.X.X.X.X.X.XR R @ + .X.X.X.X.X0.w.S.S.e.0..X.X.X.X.X.X.X.X X.X.X.X.X.X.X.X.X.X.X",
".X.X.X.X.X.X.X.X.X.X@ & o .X.X.X.X.X0.e.F.W.W.G.6..X.X.X~.|..X.X.X]..X.X.X.X.X.X.X.X.X.X",
".X.X.X.X.X.X.X.X.X.X@ @ .X.X.X.X.X0.e.F./.E.R.O.G.S..X.X^ ~.|..X{.{.`..X.X.X.X.X.X.X.X.X",
".X.X.X.X.X.X.X.X.X.X$ $ .X.X.X.X0.w.D.E.^.R.X.X. .V..X> 5 7 Q U.Y.U.Q .X.X.X.X.X.X.X.X.X",
".X.X.X.X.X.X.X.X.X.X5 : .X.X.X.X0.A.`  .^.^.Q.Q.` [ .X: @ O # ; 5 ; + .X.X.X.X.X.X.X.X.X",
".X.X.X.X.X.X.X.X.X.X( ( .X.X.X.X5.v.( !.`./.[.|.~.[ N.n O     . O + . .X.X.X.X.X.X.X.X.X",
".X.X.X.X.X.X.X.X.Xo.| { .X.X.X.X;.<.] ^.`.(.].{.'...N.n O .     o . .X.X.X.X.X.X.X.X.X.X",
".X.X.X.X.X.X.X.X.Xo.| { .X.X.X0.9.:.4.B.!.~.(.'.[.!.v.N O . . .     .X.X.X.X.X.X.X.X.X.X",
".X.X.X.X.X.X.X.X.X_ / _ .X.X0.0.0.8.>.:.<.T.E.E.R.v..X.X.Xo . . . .X.X.X.X.X.X.X.X.X.X.X",
".X.X.X.X.X.X.X.X.Xd 3 J .X0.0.0.9.,.7.q.<.) c.c.] 1.>..X.X.X.X.X.X.X.X.X.X.X.X.X.X.X.X.X",
".X.X.X.X.X.X.X.X.X.X, p 2.0.0.0.:.;.9.r.V.x.s.y.c.4.8.q..X.X.X.X.X.X.X.X.X.X.X.X.X.X.X.X",
".X.X.X.X.X.X.X.X.X.X, p #.:.7.8.-.-.8.r.D.x.h.a.x.A.q.8..X.X.X.X.X.X.X.X.X.X.X.X.X.X.X.X",
".X.X.X.X.X.X.X.X.X.X< w k @.%.-.$.%.;.5.D.m.h.a.p.b.3.=.#..X.X.X.X.X.X.X.X.X.X.X.X.X.X.X",
".X.X.X.X.X.X.X.X.X.X< 0 a k +.$.&.%.%.3.C.z.h.a.i.c.1.z k k .X.X~ ' | | .X.X.X.X.X.X.X.X",
".X.X.X.X.X.X.X.X.X.X& 0 w f +..X.X.X1.n.c.k.h.a.i.c.! r w a a a W ' | .X.X.X.X.X.X.X.X.X",
".X.X.X.X.X.X.X.X.X.X@ .X.Xg .X.X.X.Xx.) z.j.h.a.g.M..X.X.Xw w .X.X.X.X.X.X.X.X.X.X.X.X.X",
".X.X.X.X.X.X.X.X.X.X@ .X.X.X.X.X.X.Xj.k.k.j.g.a.h..X.X.X.X.X.X.X.X.X.X.X.X.X.X.X.X.X.X.X",
".X.X.X.X.X.X.X.X.X.X@ .X.X.X.X.X.X.XI i.h.l.h.d.j..X.X.X.X.X.X.X.X.X.X.X.X.X.X.X.X.X.X.X",
".X.X.X.X.X.X.X.X.X.X+ .X.X.X.X.X.X.X= 6 M L U Y U .X.X.X.X.X.X.X.X.X.X.X.X.X.X.X.X.X.X.X",
".X.X.X.X.X.X.X.X.X.X+ .X.X.X.X.X.XL b 6 1 1 3 7 7 2 .X.X.X.X.X.X.X.X.X.X.X.X.X.X.X.X.X.X",
".X.X.X.X.X.X.X.X.X.X+ .X.X.X.X.Xj.h.a.u.B b i d m M .X.X.X.X.X.X.X.X.X.X.X.X.X.X.X.X.X.X",
".X.X.X.X.X.X.X.X.X.Xo .X.X.X.Xj.j.j.l.h.u.D s s D t.h..X.X.X.X.X.X.X.X.X.X.X.X.X.X.X.X.X",
".X.X.X.X.X.X.X.X.X.X  .X.X.X.Xj.j.j.h.t.P Z e e S P y.h..X.X.X.X.X.X.X.X.X.X.X.X.X.X.X.X",
".X.X.X.X.X.X.X.X.X.Xo .X.Xj.j.j.j.h.t.P A t w w V F P y.h..X.X.X.X.X.X.X.X.X.X.X.X.X.X.X",
".X.X.X.X.X.X.X.X.X.X. .Xj.j.j.j.h.t.P G V w w f l C G P a.j..X.X.X.X.X.X.X.X.X.X.X.X.X.X",
".X.X.X.X.X.X.X.X.X.Xo .Xj.j.j.j.y.P G Z e w w k x l C G *.g..X.X.X.X.X.X.X.X.X.X.X.X.X.X",
".X.X.X.X.X.X.X.X.X.X$ .X.X.Xf.*.K H A t w .Xw f x f y D L P .X.X.X.X.X.X.X.X.X.X.X.X.X.X",
".X.X.X.X.X.X.X.X.X.X+ .X.X.X.Xl h Z V w w .X.Xa k k a V G G .X.X.X.X.X.X.X.X.X.X.X.X.X.X",
".X.X.X.X.X.X.X.X.X.X. .X.X.Xc x j e e w .X.X.Xw j x k a v .X.X.X.X.X.X.X.X.X.X.X.X.X.X.X",
".X.X.X.X.X.X.X.X.X.X+ .X.X.Xc x a w w .X.X.X.X.Xa s u 0 .X.X.X.X.X.X.X.X.X.X.X.X.X.X.X.X",
".X.X.X.X.X.X.X.X.X.X@ .X.X.Xi u q w .X.X.X.X.X.X2 = * , .X.X.X.X.X.X.X.X.X.X.X.X.X.X.X.X",
".X.X.X.X.X.X.X.X.X.X@ .X.X; & * X X .X.X.X.X.X.X% @ . .X.X.X.X.X.X.X.X.X.X.X.X.X.X.X.X.X",
".X.X.X.X.X.X.X.X.X.X+ .X.X% $ o   .X.X.X.X.X.X.X$ O . .X.X.X.X.X.X.X.X.X.X.X.X.X.X.X.X.X",
".X.X.X.X.X.X.X.X.X.Xo .X.X% @ o   .X.X.X.X.X.X- $ o   .X.X.X.X.X.X.X.X.X.X.X.X.X.X.X.X.X",
".X.X.X.X.X.X.X.X.X.Xo .X.X% +     .X.X.X.X.X.X% @ o . .X.X.X.X.X.X.X.X.X.X.X.X.X.X.X.X.X",
".X.X.X.X.X.X.X.X.X.X  .X.X$ o   . .X.X.X.X.X.X$ + . . .X.X.X.X.X.X.X.X.X.X.X.X.X.X.X.X.X",
".X.X.X.X.X.X.X.X.X.X  .X.X+ .   .X.X.X.X.X.X.X$ + . . . .X.X.X.X.X.X.X.X.X.X.X.X.X.X.X.X",
".X.X.X.X.X.X.X.X.X.X  .Xo .   . .X.X.X.X.X.X.X+ o   . . . .X.X.X.X.X.X.X.X.X.X.X.X.X.X.X",
".X.X.X.X.X.X.X.X.X.X.X.X.X.X.X.X.X.X.X.X.X.X.X.X.X.X.X.X.X.X.X.X.X.X.X.X.X.X.X.X.X.X.X.X"
};
